<?xml version="1.0" standalone="no"?>
<!DOCTYPE svg PUBLIC "-//W3C//DTD SVG 20010904//EN"
 "http://www.w3.org/TR/2001/REC-SVG-20010904/DTD/svg10.dtd">
<svg version="1.0" xmlns="http://www.w3.org/2000/svg"
 width="512.000000pt" height="512.000000pt" viewBox="0 0 512.000000 512.000000"
 preserveAspectRatio="xMidYMid meet">

<g transform="translate(0.000000,512.000000) scale(0.100000,-0.100000)"
fill="#000000" stroke="none">
<path d="M2562 4840 c-18 -4 -45 -18 -59 -31 -54 -51 -53 -41 -53 -549 0 -258
2 -470 5 -470 4 0 20 7 37 16 22 11 48 15 87 12 l55 -5 231 182 c335 264 322
255 360 255 40 0 75 -38 75 -81 0 -37 -15 -51 -313 -284 -243 -190 -256 -202
-257 -233 0 -19 -7 -50 -16 -69 -17 -34 -96 -103 -118 -103 -6 0 -49 63 -95
140 -46 77 -86 140 -88 140 -2 0 -58 -34 -124 -76 -67 -41 -127 -78 -135 -81
-12 -4 -14 20 -14 138 0 79 -4 172 -9 206 -26 175 -158 311 -333 343 -31 6
-102 9 -159 8 l-102 -3 -86 -227 c-47 -125 -87 -225 -88 -224 -2 2 6 47 17
101 l20 97 -35 66 -34 65 24 42 c43 72 39 75 -75 75 -114 0 -118 -3 -76 -77
l24 -42 -35 -65 -34 -66 16 -81 c9 -44 15 -83 12 -85 -2 -2 -40 91 -85 208
l-80 213 -79 3 c-117 5 -228 -13 -298 -47 -111 -55 -196 -168 -215 -287 -6
-33 -10 -313 -10 -636 l0 -578 170 0 170 0 0 585 c0 572 0 585 20 605 52 52
50 91 52 -867 l3 -888 46 -6 c108 -16 204 -86 255 -186 26 -51 29 -68 29 -148
0 -71 -5 -100 -22 -137 -44 -95 -145 -177 -239 -193 -75 -13 -74 -12 -74 -66
l0 -49 205 0 205 0 0 641 0 642 31 -7 c17 -3 35 -6 40 -6 5 0 9 -280 9 -638
l0 -639 53 -12 c87 -20 91 -25 91 -144 1 -88 4 -109 26 -151 35 -69 135 -164
180 -171 56 -9 60 -14 60 -74 l0 -59 -237 -4 -238 -3 -65 -31 c-116 -55 -200
-165 -220 -290 -12 -69 -13 -178 -3 -327 l6 -107 159 0 158 0 0 198 c0 180 2
200 18 215 10 10 26 17 35 17 15 0 17 -21 17 -215 l0 -215 430 0 430 0 0 215
c0 198 1 215 18 215 52 -1 62 -39 62 -251 l0 -179 161 0 161 0 -4 233 -3 232
-32 68 -32 67 103 0 104 0 53 50 c30 28 80 61 116 77 l63 27 0 143 c0 132 1
143 18 143 42 0 52 -29 52 -158 l0 -122 165 0 165 0 0 70 0 70 -38 19 c-111
57 -186 215 -162 343 6 28 10 52 10 54 0 1 -26 13 -57 25 -51 20 -81 23 -237
27 l-179 4 -56 -29 c-79 -40 -175 -40 -245 0 -47 26 -54 27 -197 27 -138 0
-148 1 -154 20 -11 33 -103 108 -163 130 -35 13 -79 21 -119 21 l-63 0 0 1200
c0 1292 -2 1238 49 1173 20 -26 21 -38 21 -356 0 -308 1 -331 20 -368 27 -53
72 -83 135 -88 62 -5 60 -6 302 144 101 63 186 114 188 114 3 0 5 -52 5 -116
0 -135 14 -170 81 -204 37 -20 64 -20 1136 -20 l1098 0 39 23 c22 12 49 38 60
57 21 34 21 49 24 789 2 507 -1 772 -8 806 -12 60 -56 110 -111 125 -41 12
-2157 12 -2207 0z m-442 -3920 l0 -140 -30 0 -30 0 0 122 c0 99 3 125 17 140
37 41 43 25 43 -122z"/>
<path d="M4220 2166 c-217 -46 -328 -284 -227 -482 98 -190 359 -239 517 -97
65 58 96 112 111 193 42 234 -167 437 -401 386z"/>
<path d="M4165 1365 c70 -43 166 -45 246 -5 21 11 39 23 39 25 0 3 -73 5 -162
5 l-163 -1 40 -24z"/>
<path d="M4790 700 l0 -70 165 0 165 0 0 70 0 70 -165 0 -165 0 0 -70z"/>
</g>
</svg>
