<?xml version="1.0" standalone="no"?>
<!DOCTYPE svg PUBLIC "-//W3C//DTD SVG 20010904//EN"
 "http://www.w3.org/TR/2001/REC-SVG-20010904/DTD/svg10.dtd">
<svg version="1.0" xmlns="http://www.w3.org/2000/svg"
 width="512.000000pt" height="512.000000pt" viewBox="0 0 512.000000 512.000000"
 preserveAspectRatio="xMidYMid meet">

<g transform="translate(0.000000,512.000000) scale(0.100000,-0.100000)"
fill="#000000" stroke="none">
<path d="M2396 5015 c-165 -58 -211 -272 -85 -392 134 -127 367 -48 395 132
21 142 -98 277 -243 275 -15 -1 -45 -7 -67 -15z m123 -140 c57 -29 65 -115 14
-155 -95 -74 -209 56 -124 141 33 32 67 37 110 14z"/>
<path d="M4047 4869 c-62 -15 -122 -62 -151 -121 -79 -158 30 -340 203 -340
139 0 235 96 235 232 0 110 -62 194 -166 225 -57 17 -66 17 -121 4z m126 -169
c33 -37 35 -77 6 -114 -30 -38 -64 -49 -105 -36 -42 14 -64 44 -64 88 0 43 14
68 48 87 37 21 81 11 115 -25z"/>
<path d="M905 4716 c-89 -39 -139 -117 -139 -216 0 -94 44 -169 124 -210 116
-60 256 -14 314 102 61 123 8 271 -116 322 -45 19 -142 20 -183 2z m168 -157
c26 -32 22 -94 -7 -124 -65 -64 -166 -22 -166 69 0 31 43 84 73 88 34 6 80
-10 100 -33z"/>
<path d="M2421 4454 c-18 -23 -21 -41 -21 -139 0 -98 3 -116 21 -139 25 -32
70 -35 99 -6 18 18 20 33 20 145 0 112 -2 127 -20 145 -29 29 -74 26 -99 -6z"/>
<path d="M3707 4332 c-73 -73 -87 -93 -87 -119 0 -22 7 -37 22 -47 45 -32 68
-21 161 72 71 72 87 93 87 118 0 38 -27 64 -66 64 -24 0 -46 -17 -117 -88z"/>
<path d="M1190 4300 c-38 -38 -27 -66 67 -162 80 -81 90 -89 122 -86 23 2 40
12 54 30 17 23 18 30 7 57 -7 17 -48 64 -91 106 -86 82 -120 94 -159 55z"/>
<path d="M3495 4120 c-11 -4 -55 -44 -97 -88 -68 -69 -78 -84 -78 -115 0 -26
6 -40 22 -51 44 -31 67 -21 160 72 73 73 88 94 88 119 0 22 -8 38 -26 52 -29
23 -38 24 -69 11z"/>
<path d="M2429 4081 c-22 -18 -24 -28 -27 -126 -5 -153 7 -185 73 -185 56 0
65 24 65 167 0 113 -2 124 -22 143 -27 25 -59 26 -89 1z"/>
<path d="M1455 4035 c-42 -41 -33 -61 68 -162 101 -101 121 -110 162 -68 42
41 33 61 -68 162 -101 101 -121 110 -162 68z"/>
<path d="M3107 3741 c-76 -75 -90 -94 -90 -120 0 -37 17 -57 56 -66 25 -7 37
2 122 86 74 72 95 99 95 120 0 31 -40 69 -73 69 -12 0 -57 -36 -110 -89z"/>
<path d="M1716 3774 c-16 -15 -20 -34 -16 -64 1 -8 40 -54 88 -102 94 -95 123
-107 162 -68 38 38 27 66 -67 161 -74 76 -91 89 -119 89 -18 0 -40 -7 -48 -16z"/>
<path d="M3907 3730 c-136 -34 -230 -143 -251 -291 l-7 -46 -337 -87 c-185
-48 -344 -89 -353 -92 -12 -3 -26 11 -48 52 l-32 56 55 58 c61 64 67 84 35
124 -34 43 -71 36 -137 -28 l-56 -54 -60 34 c-34 18 -86 39 -116 47 l-55 14
-5 83 c-5 75 -7 85 -31 103 -22 15 -33 17 -55 10 -40 -13 -54 -46 -54 -130 0
-67 -2 -73 -20 -73 -32 0 -130 -37 -173 -66 l-39 -25 -58 55 c-62 59 -89 68
-128 40 -41 -28 -30 -70 35 -136 53 -53 56 -59 41 -75 -9 -10 -25 -37 -37 -60
-13 -27 -28 -43 -39 -42 -9 0 -147 30 -306 67 l-290 68 -12 67 c-23 121 -87
207 -193 258 -64 32 -195 33 -263 2 -66 -30 -133 -96 -165 -162 -22 -46 -27
-70 -27 -136 -1 -71 3 -88 32 -147 37 -76 83 -120 161 -156 78 -36 184 -36
261 -1 51 24 150 109 150 130 0 5 7 9 16 9 14 0 555 -122 607 -136 14 -4 17
-17 17 -62 0 -31 6 -79 14 -107 7 -27 15 -56 17 -64 3 -8 -21 -28 -60 -51 -35
-21 -67 -44 -72 -51 -26 -41 9 -102 57 -102 16 0 56 16 89 35 l59 36 59 -53
c32 -29 85 -65 117 -81 l60 -28 0 -61 0 -61 -65 4 c-84 6 -143 -16 -188 -69
-42 -49 -57 -97 -57 -188 l0 -71 -52 6 c-72 8 -131 -9 -180 -54 -52 -47 -77
-102 -78 -168 l0 -52 -42 10 c-109 24 -227 -48 -258 -157 -19 -69 -8 -601 15
-685 23 -87 93 -233 139 -294 30 -38 35 -51 24 -57 -7 -5 -18 -9 -25 -9 -6 0
-19 -10 -27 -22 -13 -19 -16 -60 -16 -249 l0 -228 26 -20 c26 -21 34 -21 700
-21 661 0 674 0 694 20 19 19 20 33 20 249 0 126 -3 236 -6 245 -3 8 -21 20
-40 26 l-34 12 45 63 c61 85 111 195 135 299 19 79 21 113 18 435 l-3 349 -30
44 c-20 28 -49 53 -85 71 -49 26 -62 28 -122 23 l-68 -5 0 331 0 330 70 69
c104 104 160 236 160 381 0 26 3 48 6 48 4 0 162 41 353 90 l346 91 19 -28
c33 -46 94 -99 137 -118 38 -18 40 -20 35 -54 -3 -20 -26 -225 -51 -456 -55
-515 -50 -485 -78 -485 -32 -1 -128 -42 -169 -74 -51 -38 -104 -120 -124 -190
-73 -259 176 -513 436 -443 30 9 58 13 61 11 4 -2 22 -30 39 -62 44 -78 68
-102 102 -102 34 0 68 31 68 63 0 12 -20 57 -45 101 -25 43 -45 82 -45 86 0 4
15 31 34 58 43 64 60 135 54 226 -8 125 -88 241 -205 296 -44 21 -45 22 -40
58 3 20 27 235 53 477 26 242 51 446 57 453 5 6 18 12 29 12 37 0 126 51 168
96 65 70 85 123 85 224 0 73 -4 93 -28 142 -64 131 -233 212 -370 178z m148
-149 c74 -34 115 -95 115 -172 0 -146 -170 -238 -291 -156 -98 66 -114 192
-37 281 55 62 140 81 213 47z m-2930 -50 c134 -60 152 -235 34 -320 -178 -129
-398 108 -251 271 62 69 137 86 217 49z m1508 -189 c130 -64 201 -180 201
-327 -1 -98 -27 -171 -84 -235 -35 -40 -41 -43 -50 -28 -16 27 -90 66 -138 74
-82 13 -188 -42 -227 -117 l-15 -28 -34 20 c-50 29 -124 113 -148 167 -26 59
-35 172 -18 242 26 108 120 209 233 251 81 30 195 22 280 -19z m-38 -683 c20
-19 20 -34 23 -683 2 -643 3 -664 22 -681 25 -22 65 -22 90 0 17 15 19 36 22
232 l3 215 28 24 c36 31 78 31 114 0 l28 -24 0 -324 c0 -277 -3 -332 -18 -388
-35 -131 -120 -275 -206 -353 l-41 -37 -438 0 -438 0 -61 63 c-100 102 -168
229 -192 361 -16 85 -14 576 2 597 35 46 88 50 128 10 l29 -29 0 -157 c0 -91
4 -165 11 -176 23 -45 102 -39 120 8 5 13 9 152 9 309 l0 285 25 24 c36 37 86
34 119 -6 l26 -31 0 -284 c0 -183 4 -292 11 -305 23 -45 96 -40 118 7 8 17 11
159 11 473 l0 448 23 20 c12 11 32 24 44 27 30 9 81 -19 93 -50 6 -15 10 -212
10 -473 0 -414 1 -449 18 -464 38 -34 95 -22 111 24 8 22 11 233 11 674 0 498
3 645 13 657 33 42 94 46 132 7z m1303 -698 c44 -23 83 -63 107 -110 27 -55
18 -158 -20 -213 -35 -50 -120 -98 -174 -98 -90 0 -176 55 -212 135 -47 103 3
240 105 286 55 25 145 25 194 0z m-1090 -1598 l3 -133 -586 0 -585 0 0 135 0
135 583 -2 582 -3 3 -132z"/>
<path d="M1608 2592 c-110 -65 -133 -95 -107 -141 25 -45 71 -40 175 19 127
73 145 100 103 154 -30 38 -61 33 -171 -32z"/>
<path d="M1245 2385 c-49 -29 -98 -64 -108 -78 -31 -41 -1 -97 53 -97 32 0
195 89 223 122 36 43 6 109 -50 107 -16 0 -68 -25 -118 -54z"/>
<path d="M880 2178 c-109 -64 -120 -74 -120 -113 0 -38 26 -65 64 -65 25 0
179 83 219 118 40 35 5 113 -50 111 -16 0 -66 -23 -113 -51z"/>
<path d="M440 2125 c-102 -33 -160 -115 -160 -226 0 -56 5 -73 33 -119 106
-175 365 -140 423 58 52 178 -119 344 -296 287z m140 -160 c50 -50 21 -145
-48 -158 -35 -7 -87 15 -102 43 -26 49 -5 120 43 140 32 14 79 3 107 -25z"/>
<path d="M4160 1217 c-41 -21 -48 -61 -20 -114 47 -89 78 -123 110 -123 36 0
70 31 70 64 0 37 -78 166 -107 177 -29 11 -23 11 -53 -4z"/>
<path d="M4320 953 c-24 -8 -40 -35 -40 -64 0 -26 55 -133 88 -171 20 -24 74
-23 95 0 27 29 20 68 -23 142 -51 87 -78 108 -120 93z"/>
<path d="M4555 691 c-180 -44 -242 -265 -111 -395 53 -53 99 -69 181 -64 128
8 215 101 215 231 0 109 -61 192 -164 222 -53 16 -74 17 -121 6z m112 -153
c27 -22 41 -68 32 -102 -12 -43 -44 -66 -90 -66 -50 0 -88 33 -96 82 -5 33 -2
41 31 74 32 32 41 36 72 31 20 -3 43 -12 51 -19z"/>
</g>
</svg>
