<?xml version="1.0" standalone="no"?>
<!DOCTYPE svg PUBLIC "-//W3C//DTD SVG 20010904//EN"
 "http://www.w3.org/TR/2001/REC-SVG-20010904/DTD/svg10.dtd">
<svg version="1.0" xmlns="http://www.w3.org/2000/svg"
 width="512.000000pt" height="512.000000pt" viewBox="0 0 512.000000 512.000000"
 preserveAspectRatio="xMidYMid meet">

<g transform="translate(0.000000,512.000000) scale(0.100000,-0.100000)"
fill="#000000" stroke="none">
<path d="M146 1905 c-55 -19 -87 -45 -113 -91 -47 -82 -38 -176 23 -244 72
-79 21 -74 835 -80 l725 -5 -218 -610 c-231 -647 -237 -670 -205 -748 19 -45
88 -104 138 -117 88 -24 199 22 237 97 11 21 126 337 257 703 130 365 239 669
241 675 3 6 36 9 89 7 l85 -3 0 -436 c0 -298 4 -448 11 -474 44 -144 223 -195
336 -96 73 65 73 58 73 565 l0 452 89 0 89 0 21 -57 c11 -32 122 -341 245
-687 124 -345 236 -645 250 -666 76 -115 266 -107 341 14 56 91 57 84 -188
767 -119 334 -217 612 -217 618 0 8 203 11 728 11 l729 0 44 23 c148 78 145
290 -5 370 l-41 22 -2280 2 c-1941 2 -2286 0 -2319 -12z"/>
</g>
</svg>
