<?xml version="1.0" standalone="no"?>
<!DOCTYPE svg PUBLIC "-//W3C//DTD SVG 20010904//EN"
 "http://www.w3.org/TR/2001/REC-SVG-20010904/DTD/svg10.dtd">
<svg version="1.0" xmlns="http://www.w3.org/2000/svg"
 width="512.000000pt" height="512.000000pt" viewBox="0 0 512.000000 512.000000"
 preserveAspectRatio="xMidYMid meet">

<g transform="translate(0.000000,512.000000) scale(0.100000,-0.100000)"
fill="#000000" stroke="none">
<path d="M2465 4731 l-1900 -6 -53 -28 c-70 -37 -128 -97 -161 -166 l-26 -56
-3 -342 -3 -343 2246 0 2246 0 -3 343 c-3 393 -3 391 -98 491 -72 76 -147 108
-259 111 -47 1 -941 -1 -1986 -4z m-755 -441 l0 -140 -150 0 -150 0 0 140 0
140 150 0 150 0 0 -140z m570 0 l0 -140 -150 0 -150 0 0 140 0 140 150 0 150
0 0 -140z"/>
<path d="M3350 3337 c-102 -51 -275 -136 -384 -189 l-200 -97 110 -53 109 -53
3 -221 2 -221 283 -135 283 -135 285 136 284 137 3 220 2 220 106 52 c59 29
105 55 103 56 -15 14 -775 376 -788 375 -9 0 -99 -42 -201 -92z"/>
<path d="M1528 2936 l-88 -143 -160 -38 c-88 -21 -160 -42 -160 -46 0 -4 48
-62 106 -130 l105 -124 -5 -60 c-3 -33 -9 -109 -12 -169 -6 -92 -5 -108 7
-104 8 3 78 32 157 64 l142 58 143 -58 c78 -32 148 -61 156 -64 14 -5 14 37
-5 263 l-6 70 106 124 c58 68 106 127 106 131 0 4 -73 24 -161 46 l-161 39
-87 142 c-47 78 -88 142 -91 142 -3 0 -44 -64 -92 -143z"/>
<path d="M1230 1344 l0 -587 189 186 c105 103 195 187 201 187 6 0 96 -84 201
-187 l189 -186 0 587 0 587 -22 -7 c-20 -6 -87 -73 -147 -145 -16 -19 -18 -19
-110 16 -51 19 -101 35 -111 35 -10 0 -60 -16 -111 -35 l-94 -35 -18 21 c-55
67 -127 137 -145 143 l-22 7 0 -587z"/>
<path d="M2507 1892 c-22 -24 -21 -38 3 -62 20 -20 33 -20 935 -20 902 0 915
0 935 20 25 25 25 42 2 63 -17 16 -97 17 -939 17 -878 0 -921 -1 -936 -18z"/>
<path d="M2296 1524 c-22 -22 -20 -50 6 -68 20 -14 135 -16 1040 -16 1005 0
1018 0 1038 20 25 25 25 42 2 63 -17 16 -104 17 -1045 17 -919 0 -1027 -2
-1041 -16z"/>
<path d="M2296 1154 c-22 -22 -20 -50 6 -68 20 -14 135 -16 1040 -16 1005 0
1018 0 1038 20 25 25 25 42 2 63 -17 16 -104 17 -1045 17 -919 0 -1027 -2
-1041 -16z"/>
<path d="M2296 784 c-22 -22 -20 -50 6 -68 20 -14 135 -16 1040 -16 1005 0
1018 0 1038 20 25 25 25 42 2 63 -17 16 -104 17 -1045 17 -919 0 -1027 -2
-1041 -16z"/>
</g>
</svg>
