<?xml version="1.0" encoding="UTF-8"?>
<svg version="1.1" xmlns="http://www.w3.org/2000/svg" width="512" height="512">
<path d="M0 0 C0.89930237 0.00021149 1.79860474 0.00042297 2.72515869 0.00064087 C17.53811469 0.03530201 31.64071589 1.05207105 46.125 4.375 C46.970625 4.56223633 47.81625 4.74947266 48.6875 4.94238281 C76.86682358 11.31575326 107.83686887 23.45172277 129.44946289 43.05273438 C137.2291772 50.03292908 144.50461483 50.84430648 154.71875 51.79296875 C178.0099698 53.99387469 199.61094009 67.75309405 214.6015625 85.22265625 C219.00270249 90.59043318 222.67965751 96.35927177 226.125 102.375 C226.4662793 102.96700195 226.80755859 103.55900391 227.15917969 104.16894531 C243.6889939 133.44807077 248.96778588 168.34550976 249.74682617 201.52685547 C249.93575431 208.00874803 250.87678488 213.67053392 253.625 219.625 C258.47338684 230.58334372 258.17775307 243.88565979 254.5 255.125 C249.38716088 267.67637401 240.21222807 277.40398193 228.125 283.375 C217.68007422 287.60898411 207.17171036 287.7638514 196.125 286.375 C195.67511719 287.39335937 195.22523438 288.41171875 194.76171875 289.4609375 C187.63862507 305.26005363 178.90820946 319.79760123 168.125 333.375 C167.18914062 334.61636719 167.18914062 334.61636719 166.234375 335.8828125 C154.12334994 351.47456524 139.35570823 365.18659268 123.125 376.375 C122.3937793 376.8807959 121.66255859 377.3865918 120.90917969 377.90771484 C91.83941175 397.72915272 91.83941175 397.72915272 76.125 400.375 C76.64707031 400.99503906 77.16914063 401.61507813 77.70703125 402.25390625 C99.67887844 428.68938614 99.67887844 428.68938614 103.125 440.375 C102.29296875 444.28125 102.29296875 444.28125 101.125 447.375 C100.465 447.375 99.805 447.375 99.125 447.375 C100.52535854 454.95453628 100.52535854 454.95453628 105.06640625 460.59375 C107.15306149 461.23153491 107.15306149 461.23153491 109.22265625 461.45703125 C111.89794055 462.74797953 112.47804607 464.69699799 113.49291992 467.3840332 C114.50380489 470.5681842 115.19572751 473.77460273 115.75 477.0625 C115.87262207 477.78147461 115.99524414 478.50044922 116.12158203 479.24121094 C117.06404464 485.18012066 117.62455994 491.12511549 118 497.125 C118.0920874 498.39283325 118.0920874 498.39283325 118.18603516 499.6862793 C118.42116505 504.4880575 118.23647664 507.44308425 115.125 511.375 C113.25983225 513.24016775 110.58254478 512.50866045 108.09944314 512.52272969 C107.22573014 512.52254533 106.35201715 512.52236097 105.451828 512.52217102 C104.53091301 512.52584771 103.60999801 512.5295244 102.6611765 512.5333125 C99.55039797 512.54439664 96.43965279 512.54820114 93.32885742 512.55200195 C91.10862623 512.558263 88.88839609 512.56490947 86.66816711 512.57191467 C80.61856756 512.5893571 74.56897593 512.59988508 68.51935744 512.6081202 C64.74381798 512.61326307 60.96828101 512.61933908 57.1927433 512.62563133 C46.74513043 512.6425057 36.29751873 512.65714099 25.84989452 512.66438007 C23.13715298 512.66629007 20.42441144 512.66821038 17.71166992 512.67016602 C17.03740573 512.67064976 16.36314153 512.6711335 15.66844509 512.6716319 C4.74272881 512.6799344 -6.18287805 512.70527382 -17.10854653 512.73774669 C-28.31832001 512.7707931 -39.52803989 512.78849369 -50.73786849 512.79202431 C-57.03477409 512.79438051 -63.33150685 512.80341484 -69.62836647 512.82848549 C-75.55037449 512.851682 -81.47209484 512.85603341 -87.39413643 512.84572411 C-89.57103174 512.84522659 -91.7479408 512.85161007 -93.92479324 512.86528015 C-96.89050393 512.88286599 -99.85516732 512.87595859 -102.82087708 512.86274719 C-104.12140832 512.87920106 -104.12140832 512.87920106 -105.44821292 512.89598733 C-111.26549556 512.83316604 -111.26549556 512.83316604 -114.40952587 510.46979046 C-116.03439052 508.14716265 -116.3784905 507.04587617 -116.37109375 504.2421875 C-116.37407471 503.44522461 -116.37705566 502.64826172 -116.38012695 501.82714844 C-116.35781006 500.97668945 -116.33549316 500.12623047 -116.3125 499.25 C-116.29856201 498.36344727 -116.28462402 497.47689453 -116.27026367 496.56347656 C-115.87052279 481.93322077 -112.83946855 468.10245712 -107.875 454.375 C-107.63297852 453.69614746 -107.39095703 453.01729492 -107.14160156 452.31787109 C-101.20399341 435.98371738 -92.36743937 421.39976462 -80.875 408.375 C-79.78612481 407.10947839 -78.6989581 405.84248526 -77.61328125 404.57421875 C-77.09419189 403.96795654 -76.57510254 403.36169434 -76.0402832 402.73706055 C-75.65573975 402.28758057 -75.27119629 401.83810059 -74.875 401.375 C-75.51300537 401.09414551 -76.15101074 400.81329102 -76.80834961 400.52392578 C-113.75760508 384.16765125 -145.68206491 362.24845665 -169.875 329.375 C-170.50664062 328.52679688 -171.13828125 327.67859375 -171.7890625 326.8046875 C-193.875 296.24743151 -193.875 296.24743151 -193.875 285.375 C-194.4834375 285.54257812 -195.091875 285.71015625 -195.71875 285.8828125 C-207.06200071 288.51845016 -219.72894331 287.34792226 -229.875 281.375 C-230.97521484 280.76011719 -230.97521484 280.76011719 -232.09765625 280.1328125 C-242.91138173 273.56667387 -249.88799293 264.00882256 -253.98046875 252.1796875 C-255.05545296 247.60748391 -255.25800986 243.36837373 -255.25 238.6875 C-255.24983887 237.80843994 -255.24967773 236.92937988 -255.24951172 236.02368164 C-255.10429511 227.70735569 -253.53944986 220.37167479 -248.875 213.375 C-248.55654635 211.18889056 -248.55654635 211.18889056 -248.56640625 208.74609375 C-248.54344482 207.80668945 -248.5204834 206.86728516 -248.49682617 205.89941406 C-248.47724854 204.88073242 -248.4576709 203.86205078 -248.4375 202.8125 C-247.58754705 175.57264526 -246.06332189 131.65161499 -227.95703125 108.97265625 C-224.5718485 106.37502071 -222.02711984 107.09819201 -217.875 107.375 C-217.50375 106.3540625 -217.50375 106.3540625 -217.125 105.3125 C-215.63302092 101.80634917 -213.80664489 98.65879632 -211.875 95.375 C-212.535 94.385 -213.195 93.395 -213.875 92.375 C-214.20066638 87.05578243 -212.50301625 84.50770281 -209.0625 80.5 C-191.8720517 62.57514964 -170.08084245 53.51466994 -145.875 50.375 C-144.29178505 50.34655901 -142.70842821 50.32405787 -141.125 50.3125 C-135.59612563 49.77438436 -131.65349242 45.63821856 -127.515625 42.26171875 C-103.80062619 23.06975072 -73.96379391 10.56978759 -44.3125 4.1875 C-43.59376709 4.03249023 -42.87503418 3.87748047 -42.13452148 3.71777344 C-28.06205456 0.85176686 -14.31495534 -0.03117469 0 0 Z " fill="#F4CCB5" transform="translate(254.875,-0.375)"/>
<path d="M0 0 C0.89930237 0.00021149 1.79860474 0.00042297 2.72515869 0.00064087 C17.53811469 0.03530201 31.64071589 1.05207105 46.125 4.375 C46.970625 4.56223633 47.81625 4.74947266 48.6875 4.94238281 C76.86682358 11.31575326 107.83686887 23.45172277 129.44946289 43.05273438 C137.2291772 50.03292908 144.50461483 50.84430648 154.71875 51.79296875 C178.0099698 53.99387469 199.61094009 67.75309405 214.6015625 85.22265625 C219.00270249 90.59043318 222.67965751 96.35927177 226.125 102.375 C226.4662793 102.96700195 226.80755859 103.55900391 227.15917969 104.16894531 C243.6889939 133.44807077 248.96778588 168.34550976 249.74682617 201.52685547 C249.93575431 208.00874803 250.87678488 213.67053392 253.625 219.625 C258.47338684 230.58334372 258.17775307 243.88565979 254.5 255.125 C249.38716088 267.67637401 240.21222807 277.40398193 228.125 283.375 C217.68007422 287.60898411 207.17171036 287.7638514 196.125 286.375 C195.67511719 287.39335937 195.22523438 288.41171875 194.76171875 289.4609375 C187.63862507 305.26005363 178.90820946 319.79760123 168.125 333.375 C167.18914062 334.61636719 167.18914062 334.61636719 166.234375 335.8828125 C154.12334994 351.47456524 139.35570823 365.18659268 123.125 376.375 C122.3937793 376.8807959 121.66255859 377.3865918 120.90917969 377.90771484 C91.83941175 397.72915272 91.83941175 397.72915272 76.125 400.375 C76.64707031 400.99503906 77.16914063 401.61507813 77.70703125 402.25390625 C99.67887844 428.68938614 99.67887844 428.68938614 103.125 440.375 C102.29296875 444.28125 102.29296875 444.28125 101.125 447.375 C100.465 447.375 99.805 447.375 99.125 447.375 C100.52535854 454.95453628 100.52535854 454.95453628 105.06640625 460.59375 C107.15306149 461.23153491 107.15306149 461.23153491 109.22265625 461.45703125 C111.89794055 462.74797953 112.47804607 464.69699799 113.49291992 467.3840332 C114.50380489 470.5681842 115.19572751 473.77460273 115.75 477.0625 C115.87262207 477.78147461 115.99524414 478.50044922 116.12158203 479.24121094 C117.06404464 485.18012066 117.62455994 491.12511549 118 497.125 C118.0920874 498.39283325 118.0920874 498.39283325 118.18603516 499.6862793 C118.42116505 504.4880575 118.23647664 507.44308425 115.125 511.375 C113.25983225 513.24016775 110.58254478 512.50866045 108.09944314 512.52272969 C107.22573014 512.52254533 106.35201715 512.52236097 105.451828 512.52217102 C104.53091301 512.52584771 103.60999801 512.5295244 102.6611765 512.5333125 C99.55039797 512.54439664 96.43965279 512.54820114 93.32885742 512.55200195 C91.10862623 512.558263 88.88839609 512.56490947 86.66816711 512.57191467 C80.61856756 512.5893571 74.56897593 512.59988508 68.51935744 512.6081202 C64.74381798 512.61326307 60.96828101 512.61933908 57.1927433 512.62563133 C46.74513043 512.6425057 36.29751873 512.65714099 25.84989452 512.66438007 C23.13715298 512.66629007 20.42441144 512.66821038 17.71166992 512.67016602 C17.03740573 512.67064976 16.36314153 512.6711335 15.66844509 512.6716319 C4.74272881 512.6799344 -6.18287805 512.70527382 -17.10854653 512.73774669 C-28.31832001 512.7707931 -39.52803989 512.78849369 -50.73786849 512.79202431 C-57.03477409 512.79438051 -63.33150685 512.80341484 -69.62836647 512.82848549 C-75.55037449 512.851682 -81.47209484 512.85603341 -87.39413643 512.84572411 C-89.57103174 512.84522659 -91.7479408 512.85161007 -93.92479324 512.86528015 C-96.89050393 512.88286599 -99.85516732 512.87595859 -102.82087708 512.86274719 C-104.12140832 512.87920106 -104.12140832 512.87920106 -105.44821292 512.89598733 C-111.26549556 512.83316604 -111.26549556 512.83316604 -114.40952587 510.46979046 C-116.03439052 508.14716265 -116.3784905 507.04587617 -116.37109375 504.2421875 C-116.37407471 503.44522461 -116.37705566 502.64826172 -116.38012695 501.82714844 C-116.35781006 500.97668945 -116.33549316 500.12623047 -116.3125 499.25 C-116.29856201 498.36344727 -116.28462402 497.47689453 -116.27026367 496.56347656 C-115.87052279 481.93322077 -112.83946855 468.10245712 -107.875 454.375 C-107.63297852 453.69614746 -107.39095703 453.01729492 -107.14160156 452.31787109 C-101.20399341 435.98371738 -92.36743937 421.39976462 -80.875 408.375 C-79.78612481 407.10947839 -78.6989581 405.84248526 -77.61328125 404.57421875 C-77.09419189 403.96795654 -76.57510254 403.36169434 -76.0402832 402.73706055 C-75.65573975 402.28758057 -75.27119629 401.83810059 -74.875 401.375 C-75.51300537 401.09414551 -76.15101074 400.81329102 -76.80834961 400.52392578 C-113.75760508 384.16765125 -145.68206491 362.24845665 -169.875 329.375 C-170.50664062 328.52679688 -171.13828125 327.67859375 -171.7890625 326.8046875 C-193.875 296.24743151 -193.875 296.24743151 -193.875 285.375 C-194.4834375 285.54257812 -195.091875 285.71015625 -195.71875 285.8828125 C-207.06200071 288.51845016 -219.72894331 287.34792226 -229.875 281.375 C-230.97521484 280.76011719 -230.97521484 280.76011719 -232.09765625 280.1328125 C-242.91138173 273.56667387 -249.88799293 264.00882256 -253.98046875 252.1796875 C-255.05545296 247.60748391 -255.25800986 243.36837373 -255.25 238.6875 C-255.24983887 237.80843994 -255.24967773 236.92937988 -255.24951172 236.02368164 C-255.10429511 227.70735569 -253.53944986 220.37167479 -248.875 213.375 C-248.55654635 211.18889056 -248.55654635 211.18889056 -248.56640625 208.74609375 C-248.54344482 207.80668945 -248.5204834 206.86728516 -248.49682617 205.89941406 C-248.47724854 204.88073242 -248.4576709 203.86205078 -248.4375 202.8125 C-247.58754705 175.57264526 -246.06332189 131.65161499 -227.95703125 108.97265625 C-224.5718485 106.37502071 -222.02711984 107.09819201 -217.875 107.375 C-217.50375 106.3540625 -217.50375 106.3540625 -217.125 105.3125 C-215.63302092 101.80634917 -213.80664489 98.65879632 -211.875 95.375 C-212.535 94.385 -213.195 93.395 -213.875 92.375 C-214.20066638 87.05578243 -212.50301625 84.50770281 -209.0625 80.5 C-191.8720517 62.57514964 -170.08084245 53.51466994 -145.875 50.375 C-144.29178505 50.34655901 -142.70842821 50.32405787 -141.125 50.3125 C-135.59612563 49.77438436 -131.65349242 45.63821856 -127.515625 42.26171875 C-103.80062619 23.06975072 -73.96379391 10.56978759 -44.3125 4.1875 C-43.59376709 4.03249023 -42.87503418 3.87748047 -42.13452148 3.71777344 C-28.06205456 0.85176686 -14.31495534 -0.03117469 0 0 Z M-131.66796875 66.35546875 C-133.58982152 68.11404907 -135.55147489 69.78319775 -137.5625 71.4375 C-141.42591049 74.74643954 -144.63579063 78.46223103 -147.875 82.375 C-148.30441895 82.88144043 -148.73383789 83.38788086 -149.17626953 83.90966797 C-169.87730837 108.37970391 -184.00541327 137.47465192 -191.125 168.6875 C-191.28814697 169.39148926 -191.45129395 170.09547852 -191.61938477 170.82080078 C-194.11876163 182.28946887 -194.11808352 193.93874155 -194.17016602 205.62329102 C-194.18161867 207.40006517 -194.20196238 209.17680677 -194.23168945 210.95336914 C-194.45300579 224.25584127 -192.99728025 236.44685894 -189.875 249.375 C-189.6287085 250.43050049 -189.38241699 251.48600098 -189.12866211 252.57348633 C-188.5321513 255.00478523 -187.88422736 257.40819843 -187.1875 259.8125 C-186.81794189 261.09181396 -186.81794189 261.09181396 -186.44091797 262.39697266 C-171.66297607 311.45040821 -136.88853361 352.05495513 -92 376.25 C-63.49410037 391.15825785 -33.45754617 398.83133831 -1.3125 398.6875 C-0.42593719 398.68501251 0.46062561 398.68252502 1.37405396 398.67996216 C53.83477204 398.45220388 101.22318446 378.49689603 139.125 342.375 C139.95515625 341.60929687 140.7853125 340.84359375 141.640625 340.0546875 C174.54118614 308.746089 194.91058612 260.2098779 196.19140625 215.03271484 C196.65342187 194.41526775 194.62070125 175.26920518 189.125 155.375 C188.9192334 154.62428223 188.7134668 153.87356445 188.50146484 153.10009766 C182.89080964 133.2555801 173.49090571 113.8789506 161.125 97.375 C160.69896484 96.79782227 160.27292969 96.22064453 159.83398438 95.62597656 C150.86200562 83.55035775 140.85234074 71.85409407 129.125 62.375 C128.02701936 61.45351138 126.92939828 60.53159425 125.83203125 59.609375 C117.39024227 52.59727989 108.71430927 46.69259958 99.125 41.375 C98.10768799 40.80072266 98.10768799 40.80072266 97.06982422 40.21484375 C87.0576971 34.58519955 77.00470526 30.04079712 66.125 26.375 C65.37460449 26.11589844 64.62420898 25.85679688 63.85107422 25.58984375 C53.39729015 22.00048725 43.08515963 19.23886574 32.13964844 17.66748047 C30.20666555 17.38685595 28.27887641 17.07113494 26.3515625 16.75390625 C-30.46823879 8.26022461 -89.71078313 27.65182903 -131.66796875 66.35546875 Z " fill="#010101" transform="translate(254.875,-0.375)"/>
<path d="M0 0 C0.69867188 0.38285156 1.39734375 0.76570312 2.1171875 1.16015625 C4.8119926 2.20347573 6.38616684 1.74252444 9.125 0.9375 C10.1975 0.421875 11.27 -0.09375 12.375 -0.625 C23.05159412 -4.66642263 35.32806523 -2.50728759 45.6796875 1.3828125 C56.68514342 6.34899329 65.70986523 13.32161981 72.625 23.1875 C73.09711914 23.84355225 73.56923828 24.49960449 74.05566406 25.17553711 C76.73052946 28.90581335 79.31020211 32.69323916 81.875 36.5 C83.94714096 39.51131277 85.96976594 41.82917672 88.8125 44.125 C92.48370611 47.09179862 94.32552462 49.51378969 96.125 53.9375 C96.41245998 59.3250564 95.43924761 63.61604777 92.125 67.9375 C89.656206 69.48989154 87.36698795 70.76714063 84.75 72 C84.03900146 72.34434082 83.32800293 72.68868164 82.59545898 73.04345703 C76.29668496 76.01445736 69.88492323 78.24960817 63.125 79.9375 C62.45944092 80.11265137 61.79388184 80.28780273 61.1081543 80.46826172 C46.86099453 83.98495579 30.99378357 83.6136631 18.13671875 76.21875 C15.41848341 74.51940287 12.77434656 72.74139947 10.125 70.9375 C8.46486984 69.92668566 6.80006784 68.92336283 5.125 67.9375 C4.5165625 68.44539063 3.908125 68.95328125 3.28125 69.4765625 C-10.4688177 80.27440978 -24.51111024 83.90766465 -41.875 81.9375 C-55.4709428 79.96832993 -73.59997054 75.99191161 -82.875 64.9375 C-84.34615411 60.52403766 -84.70425955 56.53612113 -83.875 51.9375 C-81.96910223 48.82132886 -79.5016632 46.4553665 -76.875 43.9375 C-71.53982876 38.36039975 -67.21794497 32.24887822 -62.95800781 25.8359375 C-50.08030476 6.60874609 -23.74109249 -10.44752173 0 0 Z " fill="#030302" transform="translate(249.875,218.0625)"/>
<path d="M0 0 C-0.648479 0.28609131 -1.29695801 0.57218262 -1.96508789 0.86694336 C-14.76349327 6.54265939 -27.34120722 12.20166776 -39 20 C-39.58394531 20.39010254 -40.16789062 20.78020508 -40.76953125 21.18212891 C-85.0909725 51.15221023 -116.11674228 96.81208245 -126.35791016 149.50268555 C-128.37322252 160.47962457 -129.33015802 171.08573092 -129.25 182.25 C-129.24723053 182.92531769 -129.24446106 183.60063538 -129.24160767 184.29641724 C-129.19036488 194.98629231 -128.68613292 205.44059262 -127 216 C-126.89816406 216.66418945 -126.79632813 217.32837891 -126.69140625 218.01269531 C-122.04393858 247.77657003 -110.03874124 276.86892918 -92 301 C-91.44054687 301.75925781 -90.88109375 302.51851563 -90.3046875 303.30078125 C-88.5829147 305.57568396 -86.80649213 307.79167006 -85 310 C-84.38415039 310.75917725 -84.38415039 310.75917725 -83.75585938 311.53369141 C-61.12182921 339.27575913 -31.51900578 359.55844764 2 372 C-2.87995449 373.56460751 -6.65877305 372.02621552 -11.4375 370.625 C-12.82509521 370.221604 -12.82509521 370.221604 -14.24072266 369.81005859 C-24.52255726 366.70377991 -34.29528531 362.57807613 -44 358 C-44.68255859 357.67805664 -45.36511719 357.35611328 -46.06835938 357.02441406 C-90.16314266 335.78610101 -125.68274945 295.45130526 -141.92724609 249.36962891 C-145.20028456 239.42129032 -147.9530492 229.27219821 -150 219 C-150.16918945 218.30495361 -150.33837891 217.60990723 -150.51269531 216.89379883 C-152.4315037 208.15776759 -152.30245073 199.429538 -152.26074219 190.53198242 C-152.25009102 187.83554226 -152.26064777 185.13977841 -152.2734375 182.44335938 C-152.28588438 168.44335048 -151.3673077 154.7954038 -147.8125 141.1875 C-147.59891846 140.35766602 -147.38533691 139.52783203 -147.1652832 138.67285156 C-143.16557051 123.67215667 -137.34116463 109.65205334 -130 96 C-129.68981934 95.40912598 -129.37963867 94.81825195 -129.06005859 94.20947266 C-122.06548393 80.9342064 -113.09991626 69.0029791 -102.8828125 58.03515625 C-101.31538562 56.34090437 -99.86510793 54.62300939 -98.4375 52.8125 C-95.25591391 49.14143912 -91.70900044 46.12500372 -88 43 C-87.15824219 42.25878906 -86.31648438 41.51757812 -85.44921875 40.75390625 C-68.13690329 25.78821169 -24.36323406 -7.06816514 0 0 Z " fill="#DFB1A1" transform="translate(213,21)"/>
<path d="M0 0 C3.80200382 2.17700382 3.80200382 2.17700382 5.1875 3.5625 C10.28263919 4.32135052 12.542363 3.51340053 16.75 0.5625 C23.05989922 -3.46855853 28.90104714 -3.52322973 36.1875 -2.4375 C45.25554658 0.25754881 52.73747595 4.62872414 59.1875 11.5625 C59.63738281 12.04203125 60.08726562 12.5215625 60.55078125 13.015625 C63.76115479 16.58078375 66.39638077 20.34558929 69 24.375 C72.38697613 29.57315835 76.149396 34.09329198 80.40234375 38.6015625 C82.1875 40.5625 82.1875 40.5625 83.1875 42.5625 C80.5236681 43.69462856 77.85675188 44.81827958 75.1875 45.9375 C74.44371094 46.25460937 73.69992187 46.57171875 72.93359375 46.8984375 C60.18858416 52.21809368 44.83967059 54.62549282 31.5625 49.625 C25.53475239 46.64518127 20.99347544 42.1793315 16.1875 37.5625 C13.44037971 35.2380136 11.35037295 33.59086275 7.625 33.5 C4.36467808 34.92116596 2.65151562 36.98648367 0.1875 39.5625 C-12.05589572 50.06691053 -22.43704549 52.51287073 -38.30566406 51.79785156 C-47.6028754 50.924993 -56.74414156 47.10095162 -64.8125 42.5625 C-63.41442107 39.41856132 -61.75269758 37.2841191 -59.375 34.8125 C-55.55755529 30.63478827 -52.4442875 26.19227789 -49.3125 21.5 C-38.4191864 5.45872912 -20.46587013 -9.87006503 0 0 Z " fill="#A4A4A4" transform="translate(246.8125,233.4375)"/>
<path d="M0 0 C1.69513502 1.64376729 3.35580929 3.30585919 5 5 C5.77923828 5.80244141 5.77923828 5.80244141 6.57421875 6.62109375 C11.39984692 11.85166974 15.12891033 17.6208273 18.88671875 23.6328125 C22.08242282 29.09189275 22.08242282 29.09189275 26 34 C27.34747084 34.23075082 28.70377565 34.41153063 30.0625 34.5625 C31.361875 34.706875 32.66125 34.85125 34 35 C34.6987693 36.76641683 35.38366583 38.53832664 36.0625 40.3125 C36.44535156 41.29863281 36.82820313 42.28476562 37.22265625 43.30078125 C38 46 38 46 37 49 C36.01 49.66 35.02 50.32 34 51 C33.20226248 55.61486867 33.79335216 60.18718516 34.9375 64.6875 C36.48625639 70.97362887 36.5693488 77.54023204 37 84 C9.94 84 -17.12 84 -45 84 C-42.71064845 80.18441408 -41.03924802 77.83207057 -38.0625 74.75 C-19.95415531 54.84845884 -6.76751993 29.7051318 -1.5078125 3.2734375 C-1 1 -1 1 0 0 Z " fill="#51B0DC" transform="translate(320,413)"/>
<path d="M0 0 C2 1 2 1 2.83447266 3.24633789 C3.24511963 4.71961548 3.24511963 4.71961548 3.6640625 6.22265625 C3.97722412 7.3108667 4.29038574 8.39907715 4.61303711 9.52026367 C4.94698486 10.68920166 5.28093262 11.85813965 5.625 13.0625 C8.7956974 23.72928529 12.45760628 33.36921147 18 43 C18.35175293 43.6290625 18.70350586 44.258125 19.06591797 44.90625 C26.31758287 57.83865734 35.0272684 69.16133806 45.1640625 79.953125 C47 82 47 82 47 83 C19.61 83 -7.78 83 -36 83 C-34.83416201 66.67826816 -34.83416201 66.67826816 -32.75 58.875 C-32.52747559 58.0195459 -32.30495117 57.1640918 -32.07568359 56.28271484 C-30.27420027 49.57571244 -28.00876061 43.26681853 -25 37 C-24.48695313 35.88496094 -23.97390625 34.76992188 -23.4453125 33.62109375 C-17.40356526 20.93899299 -9.72740842 10.18733317 0 0 Z " fill="#51B0DC" transform="translate(190,414)"/>
<path d="M0 0 C0 4.11953707 -1.593664 4.95757921 -4.4375 7.875 C-10.01625894 13.78367486 -14.56728067 20.18600132 -19 27 C-19.67933594 28.04027344 -20.35867187 29.08054687 -21.05859375 30.15234375 C-28.63269802 42.09669143 -34.93492059 54.79461439 -40 68 C-40.30341309 68.78914795 -40.60682617 69.5782959 -40.91943359 70.39135742 C-43.42437115 77.06622315 -45.41450336 83.76886516 -47.125 90.6875 C-47.38434326 91.72680664 -47.64368652 92.76611328 -47.91088867 93.83691406 C-49.6905732 101.18741448 -50.93785698 108.4310582 -51.67578125 115.953125 C-51.93763871 118.41395415 -52.31389133 120.63087264 -53 123 C-53.90621094 123.17015625 -54.81242187 123.3403125 -55.74609375 123.515625 C-62.95218728 124.94921821 -69.46880107 126.5961741 -76 130 C-76.27149099 119.50234845 -75.68644045 109.3738125 -74 99 C-73.87641113 98.23558594 -73.75282227 97.47117187 -73.62548828 96.68359375 C-71.17840425 82.09007442 -67.34130454 67.67531388 -61.30859375 54.125 C-59.77221802 50.45604302 -59.55377425 47.94166079 -60 44 C-61.45921297 41.81940135 -61.45921297 41.81940135 -63 40 C-60.95950612 36.07204928 -58.87209155 32.38148137 -56 29 C-53.05202862 28.11004638 -51.1422217 28.59455204 -48 29 C-44.66979838 27.60596211 -43.17101461 26.21765495 -40.9375 23.375 C-31.48211462 11.58495156 -14.52345314 3.35156611 0 0 Z " fill="#A3A3A3" transform="translate(99,67)"/>
<path d="M0 0 C18.57113639 2.60550272 34.40508508 13.70615411 46.31640625 27.7265625 C67.57964854 55.93884875 77.71005504 93.83974518 77 129 C76.29617188 128.71253906 75.59234375 128.42507812 74.8671875 128.12890625 C67.74947527 125.32642827 60.6527531 122.69570483 53 122 C52.89042969 121.25878906 52.78085937 120.51757812 52.66796875 119.75390625 C52.12790849 116.16667673 51.56413839 112.58352062 51 109 C50.80535156 107.69804687 50.61070312 106.39609375 50.41015625 105.0546875 C46.85613302 82.34873082 38.67993931 61.26077807 28 41 C27.40703125 39.86046875 26.8140625 38.7209375 26.203125 37.546875 C19.67939541 25.5588249 11.51645783 14.29859015 2.5703125 3.99609375 C0 1 0 1 0 0 Z " fill="#A3A3A3" transform="translate(412,68)"/>
<path d="M0 0 C0.01401855 0.90987671 0.01401855 0.90987671 0.02832031 1.83813477 C0.39763948 21.14230279 2.34873393 39.89932006 8.265625 58.35546875 C9 61 9 61 9 65 C2.8053692 67.06487693 -3.81407619 66.8469407 -9.8125 64.25 C-19.54608165 59.27929193 -25.82425364 53.23536383 -30.0703125 43.078125 C-32.67138983 34.46615468 -31.94194567 26.62012615 -28 18.5625 C-22.26856652 8.26437103 -12.36966784 -0.33431535 0 0 Z " fill="#DEB0A0" transform="translate(46,205)"/>
<path d="M0 0 C1.41505522 0.29342979 2.82888319 0.59278094 4.2421875 0.89453125 C5.42337158 1.14360229 5.42337158 1.14360229 6.62841797 1.39770508 C15.25779169 3.58924975 21.75868808 8.96721222 26.3125 16.5625 C30.48210033 25.0561303 31.36690095 33.46823172 29.41796875 42.78125 C26.63284273 50.81869129 20.62049542 58.11520275 13.3125 62.5 C7.52612741 65.12024419 3.01749383 66.24561309 -3.375 66.125 C-4.62023437 66.10695313 -5.86546875 66.08890625 -7.1484375 66.0703125 C-8.08945312 66.04710937 -9.03046875 66.02390625 -10 66 C-9.57682488 61.51434369 -8.88858756 57.38912967 -7.625 53.0625 C-2.79976856 35.77599126 -1.63233757 17.80175212 0 0 Z " fill="#DEB0A0" transform="translate(466,205)"/>
<path d="M0 0 C0.88012756 -0.00861557 1.76025513 -0.01723114 2.66705322 -0.02610779 C5.57594222 -0.04880739 8.48387089 -0.04202132 11.39282227 -0.03295898 C13.41537259 -0.03819304 15.43792046 -0.04446871 17.46046448 -0.05174255 C21.69983402 -0.06215432 25.93886807 -0.05757442 30.17822266 -0.04296875 C35.61038729 -0.02578543 41.04149378 -0.0492668 46.47354031 -0.08445835 C50.6506094 -0.10642243 54.82742497 -0.10499315 59.00453377 -0.09669304 C61.00720441 -0.09587287 63.00989355 -0.10274876 65.0125103 -0.11746407 C67.81368842 -0.13489029 70.61296096 -0.12038353 73.4140625 -0.09765625 C74.24071915 -0.10934845 75.06737579 -0.12104065 75.91908264 -0.13308716 C80.19003595 -0.06260485 81.81963622 0.18537024 85.32142639 2.88148499 C87.27172852 5.53344727 87.27172852 5.53344727 87.33422852 8.59594727 C86.08456816 12.0508906 85.21985131 13.33581377 82.27172852 15.53344727 C79.23571325 15.92796522 76.56305161 16.08062836 73.52758789 16.05102539 C72.64585403 16.05803467 71.76412018 16.06504395 70.85566711 16.07226562 C67.94195027 16.08986648 65.02920519 16.07821546 62.11547852 16.06469727 C60.09053358 16.06739158 58.06558991 16.07127349 56.04064941 16.07629395 C51.7970752 16.08219183 47.5538378 16.07361657 43.31030273 16.05493164 C37.86919089 16.03214207 32.42886823 16.04526358 26.98778534 16.0692215 C22.80647835 16.08367154 18.62535864 16.0790771 14.44404602 16.06871033 C12.43776862 16.06604085 10.43147426 16.06932053 8.42521667 16.07862854 C5.62164228 16.08878097 2.81934811 16.07331144 0.01586914 16.05102539 C-1.22950874 16.06317078 -1.22950874 16.06317078 -2.50004578 16.07556152 C-6.09579875 16.02257322 -8.28689415 15.85169736 -11.24353027 13.71984863 C-13.4261406 10.50577862 -13.26991207 8.3249314 -12.72827148 4.53344727 C-9.43598375 -0.3092781 -5.39127102 -0.04245637 0 0 Z " fill="#010000" transform="translate(218.728271484375,106.466552734375)"/>
<path d="M0 0 C6.23505228 0.64285324 12.3861106 1.50005935 18.5625 2.5625 C19.38041016 2.70107422 20.19832031 2.83964844 21.04101562 2.98242188 C23.02772915 3.3193499 25.01392199 3.65934584 27 4 C26.93039063 5.7015625 26.93039063 5.7015625 26.859375 7.4375 C26.40600143 17.73375024 26.40600143 17.73375024 30.1015625 27.1015625 C34.45256011 36.29540963 30.04473766 52.11389203 29 62 C28.34 62 27.68 62 27 62 C25.35143267 59.86728092 23.85096467 57.74915503 22.375 55.5 C21.70839355 54.48764282 21.70839355 54.48764282 21.02832031 53.45483398 C11.72946593 39.03894716 -0.55265526 17.53145312 0 0 Z " fill="#E4E4E4" transform="translate(206,408)"/>
<path d="M0 0 C1.24809448 -0.01260864 2.49618896 -0.02521729 3.78210449 -0.03820801 C5.14054937 -0.03104816 6.49898909 -0.02284416 7.85742188 -0.01367188 C9.25460073 -0.01636757 10.65177775 -0.02025064 12.0489502 -0.02526855 C14.97438452 -0.03116013 17.89932966 -0.02261251 20.82470703 -0.00390625 C24.57098579 0.01888418 28.31611832 0.00575912 32.06235504 -0.01819611 C34.9466411 -0.03266392 37.83065626 -0.02804383 40.71495056 -0.01768494 C42.09602495 -0.01502031 43.47712408 -0.01827818 44.85816956 -0.02760315 C46.78955604 -0.03778276 48.72102898 -0.01951075 50.65234375 0 C51.75058472 0.00318237 52.84882568 0.00636475 53.98034668 0.00964355 C57.4971968 0.63734541 58.68116062 1.70800963 60.82617188 4.51757812 C61.32617188 7.51757812 61.32617188 7.51757812 60.82617188 10.51757812 C58.95907277 12.82033369 57.46969446 14.19581683 54.82617188 15.51757812 C52.94351134 15.63418869 51.05678031 15.68726781 49.1706543 15.71044922 C47.3932209 15.73454361 47.3932209 15.73454361 45.57987976 15.75912476 C40.15830956 15.80347775 34.73688512 15.84507902 29.31518555 15.86767578 C26.45255555 15.8810119 23.59063896 15.90885692 20.72827148 15.94970703 C16.60843865 16.00850178 12.4893711 16.02633493 8.36914062 16.04101562 C7.0887944 16.063685 5.80844818 16.08635437 4.48930359 16.10971069 C-5.38928222 16.08613899 -5.38928222 16.08613899 -8.48510742 13.17626953 C-10.5565178 9.9150784 -10.89993795 8.30948497 -10.17382812 4.51757812 C-7.10658557 0.51683684 -4.94711083 0.01433524 0 0 Z " fill="#070605" transform="translate(230.173828125,75.482421875)"/>
<path d="M0 0 C-0.42795891 6.87720018 -1.60236299 12.95982208 -3.9375 19.4375 C-4.24252441 20.292229 -4.54754883 21.14695801 -4.86181641 22.02758789 C-10.14963165 36.29473674 -17.56591878 50.03010651 -27 62 C-27.33 62 -27.66 62 -28 62 C-29.41136093 54.36768893 -30.32116686 46.73801054 -30.875 39 C-30.948396 38.18748779 -31.02179199 37.37497559 -31.09741211 36.5378418 C-31.3493349 32.44802606 -31.41819917 30.62306598 -29.0703125 27.125 C-28.38710938 26.42375 -27.70390625 25.7225 -27 25 C-26.11360611 22.34081834 -25.82010975 20.51935359 -25.68359375 17.76953125 C-25.64169922 16.96708984 -25.59980469 16.16464844 -25.55664062 15.33789062 C-25.51732422 14.50451172 -25.47800781 13.67113281 -25.4375 12.8125 C-25.37272461 11.5450293 -25.37272461 11.5450293 -25.30664062 10.25195312 C-25.20068482 8.16815567 -25.0998498 6.08409897 -25 4 C-21.77245186 3.32533254 -18.54273065 2.66169431 -15.3125 2 C-14.40048828 1.80921875 -13.48847656 1.6184375 -12.54882812 1.421875 C-11.66259766 1.24140625 -10.77636719 1.0609375 -9.86328125 0.875 C-9.05157471 0.70742188 -8.23986816 0.53984375 -7.40356445 0.3671875 C-4.89938135 -0.0153713 -2.52924498 -0.06298509 0 0 Z " fill="#E4E4E4" transform="translate(305,408)"/>
<path d="M0 0 C1.04269043 -0.00574036 1.04269043 -0.00574036 2.10644531 -0.01159668 C3.57228041 -0.0143118 5.03816428 -0.00697835 6.50390625 0.00976562 C8.74328975 0.03118581 10.97946587 0.00995557 13.21875 -0.015625 C14.64584039 -0.01298165 16.07292879 -0.0078565 17.5 0 C19.44132812 0.00676758 19.44132812 0.00676758 21.421875 0.01367188 C24.75 0.53125 24.75 0.53125 27.171875 2.34570312 C29.47970045 5.54181287 29.29876203 7.68991579 28.75 11.53125 C26.5141765 14.59373576 25.30662782 15.43904836 21.52954102 16.06469727 C20.28358154 16.07557373 19.03762207 16.0864502 17.75390625 16.09765625 C17.08334702 16.10385483 16.41278778 16.11005341 15.72190857 16.11643982 C14.3073776 16.12352528 12.89276301 16.12038597 11.47827148 16.10766602 C9.32183149 16.09380996 7.16974466 16.12786158 5.01367188 16.16601562 C3.63541561 16.16696707 2.25715395 16.16510665 0.87890625 16.16015625 C-0.36818115 16.16088135 -1.61526855 16.16160645 -2.90014648 16.16235352 C-7.13346654 15.36480725 -8.61617994 13.87406894 -11.25 10.53125 C-11.8125 7.46875 -11.8125 7.46875 -11.25 4.53125 C-8.01090077 0.12847438 -5.29878301 0.01847185 0 0 Z " fill="#E98F8F" transform="translate(150.25,218.46875)"/>
<path d="M0 0 C1.04269043 -0.00574036 1.04269043 -0.00574036 2.10644531 -0.01159668 C3.57228041 -0.0143118 5.03816428 -0.00697835 6.50390625 0.00976562 C8.74328975 0.03118581 10.97946587 0.00995557 13.21875 -0.015625 C14.64584039 -0.01298165 16.07292879 -0.0078565 17.5 0 C19.44132812 0.00676758 19.44132812 0.00676758 21.421875 0.01367188 C24.75 0.53125 24.75 0.53125 27.17578125 2.37695312 C29.30891401 5.2961162 29.26635373 6.99053874 28.75 10.53125 C26.97015595 13.6671657 26.22691793 14.37227736 22.75 15.53125 C18.63840772 15.78019809 14.52677794 15.80194825 10.40820312 15.82641602 C9.0562087 15.83794239 7.70426001 15.85840523 6.35253906 15.88793945 C4.3942118 15.93070917 2.4353147 15.94419668 0.4765625 15.95703125 C-1.27793213 15.97890503 -1.27793213 15.97890503 -3.06787109 16.0012207 C-6.91969656 15.43234208 -8.5655267 14.31396598 -11.25 11.53125 C-11.8125 8.03125 -11.8125 8.03125 -11.25 4.53125 C-8.0473865 0.10689876 -5.28339415 0.01841821 0 0 Z " fill="#E98F8F" transform="translate(343.25,218.46875)"/>
<path d="M0 0 C2.97 0 5.94 0 9 0 C9.51290789 4.06097547 10.00785283 8.12396056 10.5 12.1875 C10.64308594 13.31865234 10.78617187 14.44980469 10.93359375 15.61523438 C13.47233791 36.831882 13.47233791 36.831882 10.35351562 41.42456055 C8.66066015 43.14885604 6.97606471 44.61373011 5 46 C3.85373678 45.02133662 2.70800212 44.04205413 1.5625 43.0625 C0.60537109 42.24458984 0.60537109 42.24458984 -0.37109375 41.41015625 C-2.98912629 39.14370602 -2.98912629 39.14370602 -3.15039062 37.01245117 C-3.16797841 29.03712522 -2.41119108 21.23001165 -1.5 13.3125 C-1.35691406 12.02666016 -1.21382812 10.74082031 -1.06640625 9.41601562 C-0.71629677 6.27670062 -0.36072434 3.13810991 0 0 Z " fill="#CA5B5D" transform="translate(251,448)"/>
<path d="M0 0 C4.07406943 0.65476116 5.00442183 1.3684823 7.5 4.5625 C8.01757812 7.24804688 8.01757812 7.24804688 8.03125 10.28125 C8.03640625 11.37824219 8.0415625 12.47523438 8.046875 13.60546875 C8.03140625 14.74628906 8.0159375 15.88710937 8 17.0625 C8.01546875 18.20332031 8.0309375 19.34414062 8.046875 20.51953125 C8.04171875 21.61652344 8.0365625 22.71351563 8.03125 23.84375 C8.02673828 24.84470703 8.02222656 25.84566406 8.01757812 26.87695312 C7.36310901 30.27278346 6.20146714 31.46353596 3.5 33.5625 C0.5 34.0625 0.5 34.0625 -2.5 33.5625 C-4.80275556 31.6954009 -6.17823871 30.20602259 -7.5 27.5625 C-7.79382599 23.96485402 -7.77796031 20.35824606 -7.8125 16.75 C-7.84150391 15.75162109 -7.87050781 14.75324219 -7.90039062 13.72460938 C-7.93938949 9.22174094 -7.9593135 6.36953673 -5.69921875 2.3984375 C-3.5 0.5625 -3.5 0.5625 0 0 Z " fill="#070605" transform="translate(351.5,172.4375)"/>
<path d="M0 0 C2.61593153 1.83115207 2.96989455 2.90968366 4 6 C4.25424949 9.45394084 4.23128473 12.91267423 4.25 16.375 C4.270625 17.32117188 4.29125 18.26734375 4.3125 19.2421875 C4.36189373 28.03427099 4.36189373 28.03427099 1 32 C-1.84083641 33.42041821 -3.85477278 33.31452272 -7 33 C-9.71551071 30.91246647 -10.86267682 29.71252592 -11.51757812 26.31445312 C-11.52208984 25.31349609 -11.52660156 24.31253906 -11.53125 23.28125 C-11.53640625 22.18425781 -11.5415625 21.08726562 -11.546875 19.95703125 C-11.53140625 18.81621094 -11.5159375 17.67539063 -11.5 16.5 C-11.51546875 15.35917969 -11.5309375 14.21835938 -11.546875 13.04296875 C-11.54171875 11.94597656 -11.5365625 10.84898437 -11.53125 9.71875 C-11.52673828 8.71779297 -11.52222656 7.71683594 -11.51757812 6.68554688 C-10.27125939 0.21879873 -5.96281636 -0.7589039 0 0 Z " fill="#050403" transform="translate(163,173)"/>
<path d="M0 0 C5.61 0 11.22 0 17 0 C17.95205791 12.61476732 17.95205791 12.61476732 15.39453125 16.3359375 C13.2973878 18.01207842 11.53453976 19.12047687 9 20 C6.3125 19.625 6.3125 19.625 4 18 C3.071875 17.484375 2.14375 16.96875 1.1875 16.4375 C-1.64268874 13.28386112 -1.45877929 11.41531123 -1.2734375 7.31640625 C-0.9832387 4.85800782 -0.48547907 2.42739536 0 0 Z " fill="#D46062" transform="translate(248,413)"/>
</svg>
