<svg version="1.1" id="Layer_1" xmlns="http://www.w3.org/2000/svg" xmlns:xlink="http://www.w3.org/1999/xlink" x="0px" y="0px"
	 width="100%" viewBox="0 0 512 512" enable-background="new 0 0 512 512" xml:space="preserve">
<path fill="#000000" opacity="1.000000" stroke="none" 
	d="
M286.000000,513.000000 
	C190.689804,513.000000 95.879608,513.000000 1.069408,513.000000 
	C1.046274,512.856506 1.002859,512.713013 1.002857,512.569519 
	C0.999979,342.111115 1.000000,171.652710 1.000000,1.097158 
	C171.560211,1.097158 342.120514,1.097158 512.840393,1.097158 
	C512.840393,171.666550 512.840393,342.333252 512.840393,513.000000 
	C437.462860,513.000000 361.981415,513.000000 286.000000,513.000000 
M409.854279,336.244202 
	C403.839355,338.192261 397.573090,339.587372 391.854431,342.187073 
	C370.643951,351.829620 349.519440,361.675476 328.581177,371.892792 
	C323.222229,374.507812 318.516693,375.009338 312.911194,373.207947 
	C279.954681,362.616882 247.075150,351.738190 213.847580,342.062500 
	C200.732697,338.243500 186.863342,336.176208 173.205307,335.239746 
	C146.340149,333.397736 119.846596,338.009308 93.453857,342.484589 
	C89.005920,343.238800 87.466995,342.065308 86.901047,337.737000 
	C85.441284,326.573029 76.687447,319.762085 65.384804,321.129578 
	C50.385662,322.944275 35.412605,325.004120 20.466259,327.214966 
	C10.932497,328.625214 4.654891,335.928864 5.126195,345.698669 
	C5.573096,354.962555 6.864991,364.196655 8.032166,373.412598 
	C10.347826,391.696869 12.765257,409.969025 15.266825,428.228882 
	C18.106016,448.953217 21.294704,469.631836 23.924477,490.381897 
	C25.607105,503.658539 34.993382,510.840393 48.331341,508.728027 
	C61.774059,506.599091 75.274033,504.814270 88.772942,503.063873 
	C97.383987,501.947327 103.405502,497.648346 105.814247,489.270508 
	C106.787163,485.886597 108.316765,485.562073 111.201469,486.248383 
	C124.787331,489.480621 138.316605,493.025879 152.015991,495.687836 
	C171.409485,499.456238 190.827667,503.566895 210.435410,505.622345 
	C227.750946,507.437500 245.339661,506.816589 262.809601,506.903229 
	C269.592010,506.936859 276.443634,506.384033 283.152740,505.366455 
	C304.423523,502.140259 324.192993,494.077209 343.509674,485.109009 
	C372.531738,471.634918 400.504272,456.094055 426.993286,438.151703 
	C446.099121,425.210327 464.788239,411.563171 482.841309,397.197968 
	C491.279480,390.483551 498.813538,382.034576 504.898804,373.105164 
	C513.496765,360.488586 510.368774,343.500824 492.910156,337.790436 
	C479.386108,333.366943 466.402527,334.358093 453.727264,340.644958 
	C450.949463,342.022766 448.144073,343.344971 445.132233,344.798553 
	C441.497986,337.075226 435.432037,333.977356 427.954163,334.128662 
	C422.181641,334.245453 416.429810,335.385193 409.854279,336.244202 
M190.193832,175.599869 
	C192.244461,176.064789 194.290741,176.908325 196.346420,176.931824 
	C207.810455,177.062897 219.276764,176.995651 230.742294,176.995697 
	C261.184174,176.995850 291.626068,176.999023 322.067963,176.993896 
	C332.281342,176.992172 334.523376,174.435944 332.767914,164.240402 
	C328.512482,139.525024 324.172424,114.824036 319.790833,90.130669 
	C317.643768,78.030571 310.338867,72.046257 297.933075,72.009224 
	C291.436096,71.989830 284.911682,71.660347 278.454437,72.167908 
	C275.569244,72.394699 272.324524,73.758102 270.124023,75.637352 
	C266.887115,78.401672 264.439056,82.089722 260.468628,86.788086 
	C256.552338,82.122269 254.087021,78.473312 250.897156,75.640144 
	C248.839203,73.812325 245.770706,72.341408 243.064529,72.173935 
	C235.596786,71.711754 228.076370,71.845512 220.586121,72.063705 
	C210.311691,72.362999 202.737793,79.082672 201.073486,88.779228 
	C196.608368,114.793579 191.976974,140.780106 187.710098,166.826599 
	C187.289764,169.392365 188.928040,172.295380 190.193832,175.599869 
M364.971466,288.446594 
	C364.582092,290.907257 364.212250,293.371185 363.799622,295.827942 
	C362.601807,302.959625 365.156403,305.971100 372.539948,305.988678 
	C384.153015,306.016266 395.766266,305.996338 407.379425,305.996368 
	C437.810730,305.996460 468.242004,306.002563 498.673309,305.992737 
	C508.075287,305.989685 510.379181,303.377258 508.759888,294.160278 
	C504.279572,268.658875 499.759796,243.164017 495.132477,217.688950 
	C493.364075,207.953186 486.179718,202.119263 476.206085,202.019684 
	C468.712921,201.944870 461.203918,201.741119 453.732513,202.151428 
	C451.207886,202.290070 448.282379,203.598648 446.412811,205.320282 
	C443.152130,208.322922 440.568146,212.060394 438.175964,214.921295 
	C429.915283,211.217041 427.930817,201.864075 419.145172,201.983063 
	C411.652618,202.084564 404.156708,201.934204 396.663849,202.023026 
	C386.184998,202.147247 378.836761,208.632233 377.067383,218.881180 
	C373.112061,241.792099 369.052490,264.685028 364.971466,288.446594 
M138.027527,226.414673 
	C137.634262,223.618225 137.368698,220.796677 136.824554,218.029907 
	C134.968750,208.594116 127.085678,202.125275 117.290871,202.020889 
	C109.793777,201.940994 102.280960,201.743393 94.805099,202.149582 
	C92.270111,202.287292 89.333755,203.569656 87.450584,205.284256 
	C84.167679,208.273239 81.559433,212.003235 77.539421,216.757965 
	C73.807068,212.302521 71.173996,209.309967 68.713928,206.181381 
	C66.117752,202.879669 62.901596,201.721283 58.691444,201.919144 
	C52.041283,202.231644 45.365562,201.978043 38.700867,202.008667 
	C27.310066,202.061005 19.882477,208.552399 18.057844,219.660278 
	C15.608336,234.572281 12.934357,249.447266 10.416631,264.348267 
	C8.562971,275.319000 6.436550,286.262726 5.142712,297.301849 
	C4.363308,303.951752 6.756446,305.930328 13.511606,305.973419 
	C24.464066,306.043274 35.417305,305.990906 46.370213,305.990967 
	C78.483948,305.991150 110.597710,306.011810 142.711395,305.972900 
	C148.223221,305.966248 151.375122,302.338043 150.436096,296.950928 
	C146.386047,273.715668 142.229294,250.499039 138.027527,226.414673 
M272.153534,203.346024 
	C271.408508,201.856354 270.707062,200.342957 269.910614,198.881317 
	C267.067780,193.664124 263.535736,189.845184 256.774292,189.894028 
	C250.095169,189.942261 246.959442,193.866440 244.459351,199.081757 
	C240.358032,207.637238 236.150269,216.143204 232.169891,224.754395 
	C230.596634,228.157944 228.279938,229.612885 224.536041,230.096710 
	C213.674713,231.500336 202.777023,232.892380 192.067505,235.123596 
	C181.801559,237.262360 178.617615,249.143570 186.024994,256.462769 
	C193.591751,263.939423 201.490921,271.082794 208.955780,278.656738 
	C210.389160,280.111053 211.321304,282.993622 211.056519,285.031769 
	C209.623535,296.061737 207.126572,306.980499 206.175888,318.038971 
	C205.081970,330.763428 214.651581,336.722076 226.048828,330.921234 
	C235.090271,326.319458 243.868164,321.195160 252.959518,316.700165 
	C254.747986,315.815918 257.770721,316.051453 259.649658,316.959473 
	C268.931854,321.445312 278.002075,326.367676 287.185425,331.060974 
	C292.585022,333.820587 298.060486,334.341766 303.148041,330.446014 
	C308.154419,326.612488 308.591370,321.353912 307.400909,315.575500 
	C305.522919,306.459778 303.697845,297.326324 302.209991,288.142090 
	C301.853333,285.940399 302.099060,282.725403 303.457550,281.315643 
	C310.371155,274.140839 317.744446,267.409271 324.950592,260.515991 
	C329.280579,256.373993 333.053101,251.917389 331.544556,245.313553 
	C330.073486,238.873749 325.970428,235.506317 319.306061,234.780212 
	C309.577698,233.720306 299.910553,232.076828 290.174164,231.122940 
	C286.724518,230.784973 284.638611,229.562836 283.223938,226.527786 
	C279.711273,218.991577 276.081665,211.509857 272.153534,203.346024 
M101.950966,180.222229 
	C104.018379,172.421036 104.738815,164.616653 103.060524,156.577469 
	C100.769783,145.604507 92.181419,136.273209 82.756248,135.080872 
	C69.160316,133.360916 59.287766,138.578125 53.839413,150.362137 
	C47.682083,163.679581 51.589455,185.238617 62.022907,195.514954 
	C68.234535,201.633026 77.970345,203.308899 86.021889,200.010254 
	C94.729729,196.442673 98.372520,188.864716 101.950966,180.222229 
M414.234467,186.109146 
	C414.753876,186.959732 415.325043,187.783325 415.784668,188.665085 
	C420.179077,197.095245 427.370361,201.792603 436.609314,201.780243 
	C445.928955,201.767776 452.869232,196.630615 457.287781,188.351440 
	C462.828003,177.970581 464.464539,167.090530 461.669006,155.556641 
	C458.893494,144.105530 450.256348,133.611435 433.105133,134.926453 
	C422.566376,135.734467 413.344666,144.590210 410.900818,157.181946 
	C409.009888,166.924942 409.780304,176.336823 414.234467,186.109146 
M242.491867,62.953285 
	C252.653244,75.875305 269.722076,75.193192 279.085907,62.053062 
	C287.675049,50.000080 289.558380,36.256130 284.428772,22.185820 
	C280.282623,10.813044 271.768372,5.040514 260.685791,5.007290 
	C249.080933,4.972500 240.662750,10.496716 236.503693,22.137451 
	C231.429688,36.339142 233.380112,49.921265 242.491867,62.953285 
z"/>
<path fill="#262323" opacity="1.000000" stroke="none" 
	d="
M410.261536,336.157166 
	C416.429810,335.385193 422.181641,334.245453 427.954163,334.128662 
	C435.432037,333.977356 441.497986,337.075226 445.132233,344.798553 
	C448.144073,343.344971 450.949463,342.022766 453.727264,340.644958 
	C466.402527,334.358093 479.386108,333.366943 492.910156,337.790436 
	C510.368774,343.500824 513.496765,360.488586 504.898804,373.105164 
	C498.813538,382.034576 491.279480,390.483551 482.841309,397.197968 
	C464.788239,411.563171 446.099121,425.210327 426.993286,438.151703 
	C400.504272,456.094055 372.531738,471.634918 343.509674,485.109009 
	C324.192993,494.077209 304.423523,502.140259 283.152740,505.366455 
	C276.443634,506.384033 269.592010,506.936859 262.809601,506.903229 
	C245.339661,506.816589 227.750946,507.437500 210.435410,505.622345 
	C190.827667,503.566895 171.409485,499.456238 152.015991,495.687836 
	C138.316605,493.025879 124.787331,489.480621 111.201469,486.248383 
	C108.316765,485.562073 106.787163,485.886597 105.814247,489.270508 
	C103.405502,497.648346 97.383987,501.947327 88.772942,503.063873 
	C75.274033,504.814270 61.774059,506.599091 48.331341,508.728027 
	C34.993382,510.840393 25.607105,503.658539 23.924477,490.381897 
	C21.294704,469.631836 18.106016,448.953217 15.266825,428.228882 
	C12.765257,409.969025 10.347826,391.696869 8.032166,373.412598 
	C6.864991,364.196655 5.573096,354.962555 5.126195,345.698669 
	C4.654891,335.928864 10.932497,328.625214 20.466259,327.214966 
	C35.412605,325.004120 50.385662,322.944275 65.384804,321.129578 
	C76.687447,319.762085 85.441284,326.573029 86.901047,337.737000 
	C87.466995,342.065308 89.005920,343.238800 93.453857,342.484589 
	C119.846596,338.009308 146.340149,333.397736 173.205307,335.239746 
	C186.863342,336.176208 200.732697,338.243500 213.847580,342.062500 
	C247.075150,351.738190 279.954681,362.616882 312.911194,373.207947 
	C318.516693,375.009338 323.222229,374.507812 328.581177,371.892792 
	C349.519440,361.675476 370.643951,351.829620 391.854431,342.187073 
	C397.573090,339.587372 403.839355,338.192261 410.261536,336.157166 
M306.814941,386.738434 
	C279.255615,377.928345 251.687057,369.147064 224.140045,360.298676 
	C203.560257,353.688141 182.706070,347.952972 160.904053,349.182068 
	C144.022995,350.133728 127.219604,352.585419 110.408325,354.593231 
	C103.392120,355.431152 96.444946,356.847076 89.303917,358.027039 
	C94.414764,395.693604 99.424629,432.615936 104.457916,469.710876 
	C108.840286,470.699371 113.038322,471.625000 117.226234,472.594299 
	C154.598480,481.244385 191.669388,491.617218 230.407013,492.483734 
	C254.033325,493.012238 277.832306,494.388031 300.581543,486.213379 
	C368.063141,461.964813 428.003143,424.909912 482.077820,378.125854 
	C486.165436,374.589417 489.692200,370.135406 492.578735,365.541779 
	C497.162445,358.247314 494.958008,353.249054 486.615112,351.052002 
	C476.144226,348.294586 466.254913,350.257477 456.853912,355.371582 
	C435.311432,367.090607 413.729675,378.737549 392.203522,390.486420 
	C371.260071,401.917297 350.397980,413.497528 329.437012,424.895996 
	C318.813751,430.672882 307.252075,430.322205 295.846191,428.763550 
	C266.280853,424.723480 236.771530,420.272339 207.247620,415.932373 
	C203.313843,415.354095 200.308533,413.491333 200.019226,409.030884 
	C199.698242,404.082397 203.143845,401.082520 208.977676,401.896332 
	C236.130219,405.684113 263.216736,409.976532 290.413971,413.395782 
	C299.853333,414.582489 309.612061,414.502594 319.095398,413.615967 
	C325.363556,413.029938 328.977448,407.653931 328.886078,402.652557 
	C328.785583,397.153229 324.759216,391.922729 319.069489,390.150024 
	C315.281189,388.969666 311.425934,388.004272 306.814941,386.738434 
M61.641422,336.199982 
	C49.935207,337.808533 38.236759,339.476685 26.519903,341.003571 
	C19.354189,341.937347 18.385080,343.155670 19.529985,350.446594 
	C20.046301,353.734558 20.469261,357.037445 20.914478,360.336273 
	C26.679811,403.054504 32.430252,445.774750 38.218277,488.489899 
	C38.948124,493.876068 40.507442,494.993561 45.863171,494.282684 
	C59.062115,492.530762 72.255508,490.736755 85.457169,489.005737 
	C91.408775,488.225372 92.680771,486.809326 91.868698,480.823761 
	C85.738136,435.636261 79.596275,390.450226 73.355042,345.277924 
	C71.961800,335.193970 71.774292,335.219879 61.641422,336.199982 
M392.551544,374.036804 
	C405.640015,366.892822 418.728516,359.748840 433.048584,351.932648 
	C430.924042,350.530243 429.674652,349.025635 428.365082,348.971252 
	C424.751678,348.821381 420.984436,348.742615 417.504761,349.578888 
	C388.416748,356.569763 362.686371,371.415771 336.620331,383.986786 
	C339.116943,389.845215 341.433105,395.280273 343.855042,400.963501 
	C359.677216,392.215668 375.792084,383.306030 392.551544,374.036804 
z"/>
<path fill="#242323" opacity="1.000000" stroke="none" 
	d="
M189.902313,175.320862 
	C188.928040,172.295380 187.289764,169.392365 187.710098,166.826599 
	C191.976974,140.780106 196.608368,114.793579 201.073486,88.779228 
	C202.737793,79.082672 210.311691,72.362999 220.586121,72.063705 
	C228.076370,71.845512 235.596786,71.711754 243.064529,72.173935 
	C245.770706,72.341408 248.839203,73.812325 250.897156,75.640144 
	C254.087021,78.473312 256.552338,82.122269 260.468628,86.788086 
	C264.439056,82.089722 266.887115,78.401672 270.124023,75.637352 
	C272.324524,73.758102 275.569244,72.394699 278.454437,72.167908 
	C284.911682,71.660347 291.436096,71.989830 297.933075,72.009224 
	C310.338867,72.046257 317.643768,78.030571 319.790833,90.130669 
	C324.172424,114.824036 328.512482,139.525024 332.767914,164.240402 
	C334.523376,174.435944 332.281342,176.992172 322.067963,176.993896 
	C291.626068,176.999023 261.184174,176.995850 230.742294,176.995697 
	C219.276764,176.995651 207.810455,177.062897 196.346420,176.931824 
	C194.290741,176.908325 192.244461,176.064789 189.902313,175.320862 
M252.710449,97.816536 
	C246.163147,88.571815 237.391190,84.692947 226.126495,86.735176 
	C225.159012,86.910583 224.119812,86.863800 223.135437,86.743828 
	C217.855469,86.100365 215.788895,88.684120 215.003662,93.705635 
	C212.999359,106.522720 210.563904,119.272118 208.329208,132.053528 
	C206.565430,142.141525 204.843643,152.236877 203.101807,162.337204 
	C212.526123,163.685913 212.542389,163.689713 214.525909,155.205704 
	C216.229828,147.917603 217.951019,140.632629 219.548340,133.320877 
	C220.497360,128.976730 222.416458,125.761948 227.433212,126.010002 
	C231.576050,126.214851 233.780746,129.390503 233.935791,135.072754 
	C234.035706,138.734573 234.100311,142.398071 234.120865,146.061157 
	C234.151337,151.493317 234.128738,156.925766 234.128738,162.511902 
	C252.151901,162.511902 268.865326,162.511902 287.008545,162.511902 
	C287.008545,152.370728 287.003143,142.581497 287.011047,132.792267 
	C287.014526,128.463882 288.629730,125.122910 293.300079,124.635147 
	C297.908875,124.153816 300.250244,126.868294 301.161499,131.222214 
	C302.865112,139.361908 304.680786,147.478546 306.498871,155.593796 
	C308.368988,163.941330 308.506622,164.006241 317.326019,162.185822 
	C317.158905,160.591782 317.085022,158.949295 316.803406,157.343246 
	C313.125488,136.370468 309.431671,115.400444 305.710999,94.435196 
	C304.391144,86.998268 304.000122,87.474602 296.284241,86.598778 
	C284.237762,85.231392 274.893188,88.468803 267.294891,98.306366 
	C262.523224,104.484291 259.048706,103.936394 252.710449,97.816536 
z"/>
<path fill="#242323" opacity="1.000000" stroke="none" 
	d="
M365.003418,288.015930 
	C369.052490,264.685028 373.112061,241.792099 377.067383,218.881180 
	C378.836761,208.632233 386.184998,202.147247 396.663849,202.023026 
	C404.156708,201.934204 411.652618,202.084564 419.145172,201.983063 
	C427.930817,201.864075 429.915283,211.217041 438.175964,214.921295 
	C440.568146,212.060394 443.152130,208.322922 446.412811,205.320282 
	C448.282379,203.598648 451.207886,202.290070 453.732513,202.151428 
	C461.203918,201.741119 468.712921,201.944870 476.206085,202.019684 
	C486.179718,202.119263 493.364075,207.953186 495.132477,217.688950 
	C499.759796,243.164017 504.279572,268.658875 508.759888,294.160278 
	C510.379181,303.377258 508.075287,305.989685 498.673309,305.992737 
	C468.242004,306.002563 437.810730,305.996460 407.379425,305.996368 
	C395.766266,305.996338 384.153015,306.016266 372.539948,305.988678 
	C365.156403,305.971100 362.601807,302.959625 363.799622,295.827942 
	C364.212250,293.371185 364.582092,290.907257 365.003418,288.015930 
M424.512299,291.830780 
	C436.922363,291.830780 449.332458,291.830780 463.025543,291.830780 
	C463.025543,281.672760 463.049927,272.367462 463.015015,263.062378 
	C462.998199,258.579620 464.464233,255.124725 469.299683,254.263367 
	C473.161926,253.575378 476.085327,256.226807 477.267029,261.395630 
	C479.046539,269.179321 480.679260,276.996429 482.405121,284.792572 
	C484.152740,292.687012 484.544098,292.915497 493.087952,291.101257 
	C493.004913,289.706024 493.061035,288.227783 492.810547,286.803436 
	C489.064911,265.502197 485.153137,244.229050 481.595184,222.896774 
	C480.760010,217.889389 478.232147,216.694199 473.600311,216.099960 
	C461.103455,214.496674 451.147644,217.657791 443.232697,228.092117 
	C438.607910,234.188934 434.281189,234.184402 429.696045,228.149002 
	C421.792084,217.745087 411.849335,214.580765 399.339325,216.073853 
	C394.430756,216.659683 391.835419,217.925720 391.031433,223.130402 
	C389.000092,236.280975 386.482971,249.356140 384.194550,262.467468 
	C382.520996,272.055878 380.901428,281.653778 379.257660,291.248383 
	C388.779449,292.687378 388.785278,292.688721 390.762512,284.134460 
	C392.485840,276.678802 394.183319,269.217163 395.913208,261.763031 
	C396.882263,257.587250 399.463470,255.366699 403.813690,255.896042 
	C408.004303,256.405945 409.668427,259.343628 409.883820,263.227600 
	C410.049713,266.218475 409.972839,269.221954 410.073730,272.217468 
	C410.289612,278.627319 410.550720,285.035675 410.807892,291.830688 
	C415.573273,291.830688 419.545685,291.830688 424.512299,291.830780 
z"/>
<path fill="#242323" opacity="1.000000" stroke="none" 
	d="
M138.069458,226.845154 
	C142.229294,250.499039 146.386047,273.715668 150.436096,296.950928 
	C151.375122,302.338043 148.223221,305.966248 142.711395,305.972900 
	C110.597710,306.011810 78.483948,305.991150 46.370213,305.990967 
	C35.417305,305.990906 24.464066,306.043274 13.511606,305.973419 
	C6.756446,305.930328 4.363308,303.951752 5.142712,297.301849 
	C6.436550,286.262726 8.562971,275.319000 10.416631,264.348267 
	C12.934357,249.447266 15.608336,234.572281 18.057844,219.660278 
	C19.882477,208.552399 27.310066,202.061005 38.700867,202.008667 
	C45.365562,201.978043 52.041283,202.231644 58.691444,201.919144 
	C62.901596,201.721283 66.117752,202.879669 68.713928,206.181381 
	C71.173996,209.309967 73.807068,212.302521 77.539421,216.757965 
	C81.559433,212.003235 84.167679,208.273239 87.450584,205.284256 
	C89.333755,203.569656 92.270111,202.287292 94.805099,202.149582 
	C102.280960,201.743393 109.793777,201.940994 117.290871,202.020889 
	C127.085678,202.125275 134.968750,208.594116 136.824554,218.029907 
	C137.368698,220.796677 137.634262,223.618225 138.069458,226.845154 
M27.502300,250.955963 
	C25.155611,264.350891 22.808922,277.745850 20.464762,291.126343 
	C29.633512,292.850800 29.736341,292.801086 31.480637,284.955048 
	C33.286739,276.831024 35.084332,268.704895 36.837410,260.569305 
	C37.735523,256.401398 40.220573,253.890869 44.494926,254.292938 
	C48.793175,254.697266 50.713696,257.754242 50.894985,261.924133 
	C50.981804,263.921204 51.009117,265.922028 51.012413,267.921265 
	C51.025242,275.695923 51.017635,283.470581 51.017635,291.490723 
	C69.237244,291.490723 85.968086,291.490723 104.037987,291.490723 
	C104.037987,282.034515 104.011307,272.904205 104.050087,263.774200 
	C104.067520,259.669952 105.639389,256.494537 110.079544,255.911285 
	C114.709373,255.303101 117.168297,257.831299 118.146851,262.201721 
	C119.856133,269.835663 121.644089,277.452118 123.424759,285.069885 
	C125.189316,292.618713 126.597977,293.364868 134.713394,290.808746 
	C130.568695,267.446686 126.400330,244.033737 122.275040,220.613174 
	C121.628845,216.944519 118.947823,216.443497 115.981804,216.252686 
	C97.741264,215.079163 97.741180,215.080338 84.686447,228.009308 
	C84.331299,228.361053 83.982780,228.719757 83.620674,229.064178 
	C79.188332,233.280106 75.865967,233.347412 71.548279,229.167374 
	C67.957245,225.690826 64.556679,222.012070 60.874275,218.638428 
	C59.633255,217.501480 57.812828,216.427612 56.211056,216.355896 
	C50.391445,216.095261 44.551243,216.209579 38.720871,216.306656 
	C35.320408,216.363281 33.255207,217.860382 32.671535,221.580017 
	C31.175095,231.116623 29.379278,240.606247 27.502300,250.955963 
z"/>
<path fill="#262322" opacity="1.000000" stroke="none" 
	d="
M272.326263,203.676147 
	C276.081665,211.509857 279.711273,218.991577 283.223938,226.527786 
	C284.638611,229.562836 286.724518,230.784973 290.174164,231.122940 
	C299.910553,232.076828 309.577698,233.720306 319.306061,234.780212 
	C325.970428,235.506317 330.073486,238.873749 331.544556,245.313553 
	C333.053101,251.917389 329.280579,256.373993 324.950592,260.515991 
	C317.744446,267.409271 310.371155,274.140839 303.457550,281.315643 
	C302.099060,282.725403 301.853333,285.940399 302.209991,288.142090 
	C303.697845,297.326324 305.522919,306.459778 307.400909,315.575500 
	C308.591370,321.353912 308.154419,326.612488 303.148041,330.446014 
	C298.060486,334.341766 292.585022,333.820587 287.185425,331.060974 
	C278.002075,326.367676 268.931854,321.445312 259.649658,316.959473 
	C257.770721,316.051453 254.747986,315.815918 252.959518,316.700165 
	C243.868164,321.195160 235.090271,326.319458 226.048828,330.921234 
	C214.651581,336.722076 205.081970,330.763428 206.175888,318.038971 
	C207.126572,306.980499 209.623535,296.061737 211.056519,285.031769 
	C211.321304,282.993622 210.389160,280.111053 208.955780,278.656738 
	C201.490921,271.082794 193.591751,263.939423 186.024994,256.462769 
	C178.617615,249.143570 181.801559,237.262360 192.067505,235.123596 
	C202.777023,232.892380 213.674713,231.500336 224.536041,230.096710 
	C228.279938,229.612885 230.596634,228.157944 232.169891,224.754395 
	C236.150269,216.143204 240.358032,207.637238 244.459351,199.081757 
	C246.959442,193.866440 250.095169,189.942261 256.774292,189.894028 
	C263.535736,189.845184 267.067780,193.664124 269.910614,198.881317 
	C270.707062,200.342957 271.408508,201.856354 272.326263,203.676147 
M206.837402,247.222672 
	C204.436981,247.641251 202.036560,248.059830 198.543304,248.668961 
	C205.550674,255.265808 211.582199,261.660797 218.359680,267.131683 
	C225.789917,273.129486 227.813904,279.940308 225.523148,289.140686 
	C223.293259,298.096588 222.339325,307.370148 220.667313,317.456360 
	C229.968155,312.347961 238.543884,307.965759 246.774551,303.010468 
	C253.044327,299.235748 258.707275,299.271606 265.031189,302.889404 
	C273.651093,307.820740 282.606537,312.165588 292.086090,317.110321 
	C291.942505,314.397705 292.036407,312.424438 291.701996,310.526703 
	C290.489349,303.644867 289.569855,296.668091 287.720581,289.952698 
	C285.396393,281.512817 287.717438,275.381958 294.158173,269.563629 
	C301.251190,263.156097 307.418640,255.724060 314.078766,248.643173 
	C304.742310,247.454636 295.043579,246.042450 285.302551,245.043076 
	C278.929962,244.389267 274.459229,241.747055 271.730438,235.730408 
	C268.227539,228.006927 264.240906,220.502579 260.449127,212.910583 
	C259.471313,210.952728 258.442780,209.020218 257.035889,206.299286 
	C252.149185,216.600159 247.661133,225.856766 243.364746,235.201477 
	C241.151703,240.014877 237.635117,242.808868 232.404907,243.547424 
	C224.165237,244.710983 215.932022,245.920242 206.837402,247.222672 
z"/>
<path fill="#252323" opacity="1.000000" stroke="none" 
	d="
M101.865097,180.612396 
	C98.372520,188.864716 94.729729,196.442673 86.021889,200.010254 
	C77.970345,203.308899 68.234535,201.633026 62.022907,195.514954 
	C51.589455,185.238617 47.682083,163.679581 53.839413,150.362137 
	C59.287766,138.578125 69.160316,133.360916 82.756248,135.080872 
	C92.181419,136.273209 100.769783,145.604507 103.060524,156.577469 
	C104.738815,164.616653 104.018379,172.421036 101.865097,180.612396 
M76.721634,187.200546 
	C79.254044,185.881378 82.650230,185.196869 84.167496,183.131836 
	C90.329529,174.745132 91.143265,165.311050 87.381798,155.688049 
	C85.676834,151.326218 82.113083,148.903381 77.205872,149.019424 
	C72.269737,149.136154 68.895203,151.892761 67.360176,156.226944 
	C64.133087,165.338730 64.839287,174.310959 70.272415,182.476578 
	C71.558540,184.409531 74.016891,185.562500 76.721634,187.200546 
z"/>
<path fill="#252323" opacity="1.000000" stroke="none" 
	d="
M414.111450,185.750854 
	C409.780304,176.336823 409.009888,166.924942 410.900818,157.181946 
	C413.344666,144.590210 422.566376,135.734467 433.105133,134.926453 
	C450.256348,133.611435 458.893494,144.105530 461.669006,155.556641 
	C464.464539,167.090530 462.828003,177.970581 457.287781,188.351440 
	C452.869232,196.630615 445.928955,201.767776 436.609314,201.780243 
	C427.370361,201.792603 420.179077,197.095245 415.784668,188.665085 
	C415.325043,187.783325 414.753876,186.959732 414.111450,185.750854 
M448.207886,169.248734 
	C447.501495,164.546341 447.346710,159.668732 445.925201,155.193466 
	C444.642212,151.154282 440.992523,149.047684 436.544678,149.014542 
	C432.122284,148.981598 428.986267,151.104340 426.878540,154.920883 
	C422.611023,162.648026 424.174591,177.086884 430.020691,183.723038 
	C434.278931,188.556778 439.340820,188.794739 442.883972,183.377502 
	C445.426208,179.490677 446.434052,174.600250 448.207886,169.248734 
z"/>
<path fill="#252323" opacity="1.000000" stroke="none" 
	d="
M242.252563,62.686394 
	C233.380112,49.921265 231.429688,36.339142 236.503693,22.137451 
	C240.662750,10.496716 249.080933,4.972500 260.685791,5.007290 
	C271.768372,5.040514 280.282623,10.813044 284.428772,22.185820 
	C289.558380,36.256130 287.675049,50.000080 279.085907,62.053062 
	C269.722076,75.193192 252.653244,75.875305 242.252563,62.686394 
M271.827698,30.230068 
	C269.285645,22.405624 265.777496,19.122629 260.129547,19.282732 
	C255.032990,19.427202 250.879379,22.888905 249.396957,28.838541 
	C247.436325,36.707462 248.135193,44.428947 252.229843,51.535412 
	C256.925659,59.685219 263.931519,59.599094 268.670654,51.415138 
	C272.332916,45.090797 272.809967,38.182323 271.827698,30.230068 
z"/>
<path fill="#EFC5A4" opacity="1.000000" stroke="none" 
	d="
M307.207794,386.840546 
	C311.425934,388.004272 315.281189,388.969666 319.069489,390.150024 
	C324.759216,391.922729 328.785583,397.153229 328.886078,402.652557 
	C328.977448,407.653931 325.363556,413.029938 319.095398,413.615967 
	C309.612061,414.502594 299.853333,414.582489 290.413971,413.395782 
	C263.216736,409.976532 236.130219,405.684113 208.977676,401.896332 
	C203.143845,401.082520 199.698242,404.082397 200.019226,409.030884 
	C200.308533,413.491333 203.313843,415.354095 207.247620,415.932373 
	C236.771530,420.272339 266.280853,424.723480 295.846191,428.763550 
	C307.252075,430.322205 318.813751,430.672882 329.437012,424.895996 
	C350.397980,413.497528 371.260071,401.917297 392.203522,390.486420 
	C413.729675,378.737549 435.311432,367.090607 456.853912,355.371582 
	C466.254913,350.257477 476.144226,348.294586 486.615112,351.052002 
	C494.958008,353.249054 497.162445,358.247314 492.578735,365.541779 
	C489.692200,370.135406 486.165436,374.589417 482.077820,378.125854 
	C428.003143,424.909912 368.063141,461.964813 300.581543,486.213379 
	C277.832306,494.388031 254.033325,493.012238 230.407013,492.483734 
	C191.669388,491.617218 154.598480,481.244385 117.226234,472.594299 
	C113.038322,471.625000 108.840286,470.699371 104.457916,469.710876 
	C99.424629,432.615936 94.414764,395.693604 89.303917,358.027039 
	C96.444946,356.847076 103.392120,355.431152 110.408325,354.593231 
	C127.219604,352.585419 144.022995,350.133728 160.904053,349.182068 
	C182.706070,347.952972 203.560257,353.688141 224.140045,360.298676 
	C251.687057,369.147064 279.255615,377.928345 307.207794,386.840546 
z"/>
<path fill="#FEB532" opacity="1.000000" stroke="none" 
	d="
M62.063652,336.150452 
	C71.774292,335.219879 71.961800,335.193970 73.355042,345.277924 
	C79.596275,390.450226 85.738136,435.636261 91.868698,480.823761 
	C92.680771,486.809326 91.408775,488.225372 85.457169,489.005737 
	C72.255508,490.736755 59.062115,492.530762 45.863171,494.282684 
	C40.507442,494.993561 38.948124,493.876068 38.218277,488.489899 
	C32.430252,445.774750 26.679811,403.054504 20.914478,360.336273 
	C20.469261,357.037445 20.046301,353.734558 19.529985,350.446594 
	C18.385080,343.155670 19.354189,341.937347 26.519903,341.003571 
	C38.236759,339.476685 49.935207,337.808533 62.063652,336.150452 
z"/>
<path fill="#DDB797" opacity="1.000000" stroke="none" 
	d="
M392.229248,374.216583 
	C375.792084,383.306030 359.677216,392.215668 343.855042,400.963501 
	C341.433105,395.280273 339.116943,389.845215 336.620331,383.986786 
	C362.686371,371.415771 388.416748,356.569763 417.504761,349.578888 
	C420.984436,348.742615 424.751678,348.821381 428.365082,348.971252 
	C429.674652,349.025635 430.924042,350.530243 433.048584,351.932648 
	C418.728516,359.748840 405.640015,366.892822 392.229248,374.216583 
z"/>
<path fill="#2D84CA" opacity="1.000000" stroke="none" 
	d="
M252.962540,98.068924 
	C259.048706,103.936394 262.523224,104.484291 267.294891,98.306366 
	C274.893188,88.468803 284.237762,85.231392 296.284241,86.598778 
	C304.000122,87.474602 304.391144,86.998268 305.710999,94.435196 
	C309.431671,115.400444 313.125488,136.370468 316.803406,157.343246 
	C317.085022,158.949295 317.158905,160.591782 317.326019,162.185822 
	C308.506622,164.006241 308.368988,163.941330 306.498871,155.593796 
	C304.680786,147.478546 302.865112,139.361908 301.161499,131.222214 
	C300.250244,126.868294 297.908875,124.153816 293.300079,124.635147 
	C288.629730,125.122910 287.014526,128.463882 287.011047,132.792267 
	C287.003143,142.581497 287.008545,152.370728 287.008545,162.511902 
	C268.865326,162.511902 252.151901,162.511902 234.128738,162.511902 
	C234.128738,156.925766 234.151337,151.493317 234.120865,146.061157 
	C234.100311,142.398071 234.035706,138.734573 233.935791,135.072754 
	C233.780746,129.390503 231.576050,126.214851 227.433212,126.010002 
	C222.416458,125.761948 220.497360,128.976730 219.548340,133.320877 
	C217.951019,140.632629 216.229828,147.917603 214.525909,155.205704 
	C212.542389,163.689713 212.526123,163.685913 203.101807,162.337204 
	C204.843643,152.236877 206.565430,142.141525 208.329208,132.053528 
	C210.563904,119.272118 212.999359,106.522720 215.003662,93.705635 
	C215.788895,88.684120 217.855469,86.100365 223.135437,86.743828 
	C224.119812,86.863800 225.159012,86.910583 226.126495,86.735176 
	C237.391190,84.692947 246.163147,88.571815 252.962540,98.068924 
z"/>
<path fill="#2D84CA" opacity="1.000000" stroke="none" 
	d="
M424.015198,291.830750 
	C419.545685,291.830688 415.573273,291.830688 410.807892,291.830688 
	C410.550720,285.035675 410.289612,278.627319 410.073730,272.217468 
	C409.972839,269.221954 410.049713,266.218475 409.883820,263.227600 
	C409.668427,259.343628 408.004303,256.405945 403.813690,255.896042 
	C399.463470,255.366699 396.882263,257.587250 395.913208,261.763031 
	C394.183319,269.217163 392.485840,276.678802 390.762512,284.134460 
	C388.785278,292.688721 388.779449,292.687378 379.257660,291.248383 
	C380.901428,281.653778 382.520996,272.055878 384.194550,262.467468 
	C386.482971,249.356140 389.000092,236.280975 391.031433,223.130402 
	C391.835419,217.925720 394.430756,216.659683 399.339325,216.073853 
	C411.849335,214.580765 421.792084,217.745087 429.696045,228.149002 
	C434.281189,234.184402 438.607910,234.188934 443.232697,228.092117 
	C451.147644,217.657791 461.103455,214.496674 473.600311,216.099960 
	C478.232147,216.694199 480.760010,217.889389 481.595184,222.896774 
	C485.153137,244.229050 489.064911,265.502197 492.810547,286.803436 
	C493.061035,288.227783 493.004913,289.706024 493.087952,291.101257 
	C484.544098,292.915497 484.152740,292.687012 482.405121,284.792572 
	C480.679260,276.996429 479.046539,269.179321 477.267029,261.395630 
	C476.085327,256.226807 473.161926,253.575378 469.299683,254.263367 
	C464.464233,255.124725 462.998199,258.579620 463.015015,263.062378 
	C463.049927,272.367462 463.025543,281.672760 463.025543,291.830780 
	C449.332458,291.830780 436.922363,291.830780 424.015198,291.830750 
z"/>
<path fill="#2D84CA" opacity="1.000000" stroke="none" 
	d="
M27.602726,250.535309 
	C29.379278,240.606247 31.175095,231.116623 32.671535,221.580017 
	C33.255207,217.860382 35.320408,216.363281 38.720871,216.306656 
	C44.551243,216.209579 50.391445,216.095261 56.211056,216.355896 
	C57.812828,216.427612 59.633255,217.501480 60.874275,218.638428 
	C64.556679,222.012070 67.957245,225.690826 71.548279,229.167374 
	C75.865967,233.347412 79.188332,233.280106 83.620674,229.064178 
	C83.982780,228.719757 84.331299,228.361053 84.686447,228.009308 
	C97.741180,215.080338 97.741264,215.079163 115.981804,216.252686 
	C118.947823,216.443497 121.628845,216.944519 122.275040,220.613174 
	C126.400330,244.033737 130.568695,267.446686 134.713394,290.808746 
	C126.597977,293.364868 125.189316,292.618713 123.424759,285.069885 
	C121.644089,277.452118 119.856133,269.835663 118.146851,262.201721 
	C117.168297,257.831299 114.709373,255.303101 110.079544,255.911285 
	C105.639389,256.494537 104.067520,259.669952 104.050087,263.774200 
	C104.011307,272.904205 104.037987,282.034515 104.037987,291.490723 
	C85.968086,291.490723 69.237244,291.490723 51.017635,291.490723 
	C51.017635,283.470581 51.025242,275.695923 51.012413,267.921265 
	C51.009117,265.922028 50.981804,263.921204 50.894985,261.924133 
	C50.713696,257.754242 48.793175,254.697266 44.494926,254.292938 
	C40.220573,253.890869 37.735523,256.401398 36.837410,260.569305 
	C35.084332,268.704895 33.286739,276.831024 31.480637,284.955048 
	C29.736341,292.801086 29.633512,292.850800 20.464762,291.126343 
	C22.808922,277.745850 25.155611,264.350891 27.602726,250.535309 
z"/>
<path fill="#FDB532" opacity="1.000000" stroke="none" 
	d="
M207.266739,247.166412 
	C215.932022,245.920242 224.165237,244.710983 232.404907,243.547424 
	C237.635117,242.808868 241.151703,240.014877 243.364746,235.201477 
	C247.661133,225.856766 252.149185,216.600159 257.035889,206.299286 
	C258.442780,209.020218 259.471313,210.952728 260.449127,212.910583 
	C264.240906,220.502579 268.227539,228.006927 271.730438,235.730408 
	C274.459229,241.747055 278.929962,244.389267 285.302551,245.043076 
	C295.043579,246.042450 304.742310,247.454636 314.078766,248.643173 
	C307.418640,255.724060 301.251190,263.156097 294.158173,269.563629 
	C287.717438,275.381958 285.396393,281.512817 287.720581,289.952698 
	C289.569855,296.668091 290.489349,303.644867 291.701996,310.526703 
	C292.036407,312.424438 291.942505,314.397705 292.086090,317.110321 
	C282.606537,312.165588 273.651093,307.820740 265.031189,302.889404 
	C258.707275,299.271606 253.044327,299.235748 246.774551,303.010468 
	C238.543884,307.965759 229.968155,312.347961 220.667313,317.456360 
	C222.339325,307.370148 223.293259,298.096588 225.523148,289.140686 
	C227.813904,279.940308 225.789917,273.129486 218.359680,267.131683 
	C211.582199,261.660797 205.550674,255.265808 198.543304,248.668961 
	C202.036560,248.059830 204.436981,247.641251 207.266739,247.166412 
z"/>
<path fill="#DEB797" opacity="1.000000" stroke="none" 
	d="
M76.328827,187.137421 
	C74.016891,185.562500 71.558540,184.409531 70.272415,182.476578 
	C64.839287,174.310959 64.133087,165.338730 67.360176,156.226944 
	C68.895203,151.892761 72.269737,149.136154 77.205872,149.019424 
	C82.113083,148.903381 85.676834,151.326218 87.381798,155.688049 
	C91.143265,165.311050 90.329529,174.745132 84.167496,183.131836 
	C82.650230,185.196869 79.254044,185.881378 76.328827,187.137421 
z"/>
<path fill="#DDB797" opacity="1.000000" stroke="none" 
	d="
M448.167175,169.703156 
	C446.434052,174.600250 445.426208,179.490677 442.883972,183.377502 
	C439.340820,188.794739 434.278931,188.556778 430.020691,183.723038 
	C424.174591,177.086884 422.611023,162.648026 426.878540,154.920883 
	C428.986267,151.104340 432.122284,148.981598 436.544678,149.014542 
	C440.992523,149.047684 444.642212,151.154282 445.925201,155.193466 
	C447.346710,159.668732 447.501495,164.546341 448.167175,169.703156 
z"/>
<path fill="#DDB697" opacity="1.000000" stroke="none" 
	d="
M271.891907,30.661182 
	C272.809967,38.182323 272.332916,45.090797 268.670654,51.415138 
	C263.931519,59.599094 256.925659,59.685219 252.229843,51.535412 
	C248.135193,44.428947 247.436325,36.707462 249.396957,28.838541 
	C250.879379,22.888905 255.032990,19.427202 260.129547,19.282732 
	C265.777496,19.122629 269.285645,22.405624 271.891907,30.661182 
z"/>
</svg>